<svg width="21" height="21" viewBox="0 0 21 21" fill="none" xmlns="http://www.w3.org/2000/svg">
<path id="icon/action/account_circle_24px" fill-rule="evenodd" clip-rule="evenodd" d="M10.9688 0.792969C5.44875 0.792969 0.96875 5.27297 0.96875 10.793C0.96875 16.313 5.44875 20.793 10.9688 20.793C16.4888 20.793 20.9688 16.313 20.9688 10.793C20.9688 5.27297 16.4888 0.792969 10.9688 0.792969ZM6.03875 17.073C6.46875 16.173 9.08875 15.293 10.9688 15.293C12.8488 15.293 15.4788 16.173 15.8988 17.073C14.5387 18.153 12.8287 18.793 10.9688 18.793C9.10875 18.793 7.39875 18.153 6.03875 17.073ZM10.9688 13.293C12.4288 13.293 15.8987 13.883 17.3288 15.623C18.3487 14.283 18.9688 12.613 18.9688 10.793C18.9688 6.38297 15.3787 2.79297 10.9688 2.79297C6.55875 2.79297 2.96875 6.38297 2.96875 10.793C2.96875 12.613 3.58875 14.283 4.60875 15.623C6.03875 13.883 9.50875 13.293 10.9688 13.293ZM10.9688 4.79297C9.02875 4.79297 7.46875 6.35297 7.46875 8.29297C7.46875 10.233 9.02875 11.793 10.9688 11.793C12.9088 11.793 14.4688 10.233 14.4688 8.29297C14.4688 6.35297 12.9088 4.79297 10.9688 4.79297ZM9.46875 8.29297C9.46875 9.12297 10.1388 9.79297 10.9688 9.79297C11.7987 9.79297 12.4688 9.12297 12.4688 8.29297C12.4688 7.46297 11.7987 6.79297 10.9688 6.79297C10.1388 6.79297 9.46875 7.46297 9.46875 8.29297Z" fill="#000033"/>
</svg>
