<svg width="21" height="21" viewBox="0 0 21 21" fill="none" xmlns="http://www.w3.org/2000/svg">
<path id="icon/action/account_circle_24px" fill-rule="evenodd" clip-rule="evenodd" d="M10.7715 0.25C5.25148 0.25 0.771484 4.73 0.771484 10.25C0.771484 15.77 5.25148 20.25 10.7715 20.25C16.2915 20.25 20.7715 15.77 20.7715 10.25C20.7715 4.73 16.2915 0.25 10.7715 0.25ZM5.84148 16.53C6.27148 15.63 8.89148 14.75 10.7715 14.75C12.6515 14.75 15.2815 15.63 15.7015 16.53C14.3415 17.61 12.6315 18.25 10.7715 18.25C8.91148 18.25 7.20148 17.61 5.84148 16.53ZM10.7715 12.75C12.2315 12.75 15.7015 13.34 17.1315 15.08C18.1515 13.74 18.7715 12.07 18.7715 10.25C18.7715 5.84 15.1815 2.25 10.7715 2.25C6.36148 2.25 2.77148 5.84 2.77148 10.25C2.77148 12.07 3.39148 13.74 4.41148 15.08C5.84148 13.34 9.31148 12.75 10.7715 12.75ZM10.7715 4.25C8.83148 4.25 7.27148 5.81 7.27148 7.75C7.27148 9.69 8.83148 11.25 10.7715 11.25C12.7115 11.25 14.2715 9.69 14.2715 7.75C14.2715 5.81 12.7115 4.25 10.7715 4.25ZM9.27148 7.75C9.27148 8.58 9.94148 9.25 10.7715 9.25C11.6015 9.25 12.2715 8.58 12.2715 7.75C12.2715 6.92 11.6015 6.25 10.7715 6.25C9.94148 6.25 9.27148 6.92 9.27148 7.75Z" fill="white"/>
</svg>
