<svg width="27" height="31" viewBox="0 0 27 31" fill="none" xmlns="http://www.w3.org/2000/svg">
<g id="Group 851">
<path id="icon/action/today_24px" fill-rule="evenodd" clip-rule="evenodd" d="M22.4961 3.93945H23.9961C25.6461 3.93945 26.9961 5.28945 26.9961 6.93945V27.9395C26.9961 29.5895 25.6461 30.9395 23.9961 30.9395H2.99609C1.33109 30.9395 -0.00390625 29.5895 -0.00390625 27.9395V6.93945C-0.00390625 5.28945 1.33109 3.93945 2.99609 3.93945H4.49609V0.939453H7.49609V3.93945H19.4961V0.939453H22.4961V3.93945ZM2.99609 12.9395V27.9395H23.9961V12.9395H2.99609ZM23.9961 9.93945H2.99609V6.93945H23.9961V9.93945Z" fill="#000033"/>
<path id="Star 3" d="M13.4963 14.0547L15.4191 17.7972L19.5726 18.4693L16.6074 21.4544L17.2517 25.6124L13.4963 23.7147L9.74103 25.6124L10.3853 21.4544L7.42012 18.4693L11.5736 17.7972L13.4963 14.0547Z" fill="#000033"/>
</g>
</svg>
