<svg width="100" height="99" viewBox="0 0 100 99" fill="none" xmlns="http://www.w3.org/2000/svg">
<g filter="url(#filter0_d_956_19991)">
<path d="M49.9305 0C24.9161 0 4.6377 20.2784 4.6377 45.2928C4.6377 70.3072 24.9161 90.5855 49.9305 90.5855C74.9449 90.5855 95.2232 70.3072 95.2232 45.2928C95.2232 20.2784 74.9449 0 49.9305 0ZM51.3485 82.3794C50.8317 82.8428 50.2951 82.9404 49.9351 82.9404C49.5716 82.9404 49.0293 82.8417 48.5043 82.3701C42.1297 76.6354 37.4378 69.3038 34.7678 61.1871C44.7172 58.6449 55.1682 58.61 65.1326 61.0814C62.4673 69.2445 57.7557 76.6191 51.3485 82.3794ZM33.0607 54.4326C32.516 51.4433 32.2198 48.3878 32.2198 45.2928C32.2198 42.1978 32.516 39.1423 33.0595 36.1529C38.6653 37.5826 44.4129 38.3003 50.1627 38.3003C55.7605 38.3003 61.357 37.6186 66.8224 36.2633C67.3531 39.2177 67.6423 42.2361 67.6423 45.2928C67.6423 48.3495 67.3531 51.3678 66.8224 54.3223C55.743 51.5745 44.1237 51.6094 33.0607 54.4326ZM48.5136 8.20612C49.0293 7.74274 49.567 7.64519 49.9258 7.64519C50.2893 7.64519 50.8317 7.74506 51.3566 8.21541C57.7592 13.9746 62.4661 21.3457 65.1303 29.5042C55.1659 31.9744 44.7148 31.9407 34.7655 29.3985C37.4366 21.2783 42.1331 13.942 48.5136 8.20612ZM73.5268 34.2274C77.3442 32.8558 81.0629 31.1347 84.6398 29.0698C86.9544 33.9998 88.2551 39.4965 88.2551 45.2928C88.2551 51.0891 86.9544 56.5858 84.641 61.5157C81.064 59.4497 77.3454 57.7297 73.528 56.3582C74.2295 52.751 74.6104 49.0498 74.6104 45.2928C74.6092 41.5358 74.2295 37.8357 73.5268 34.2274ZM81.1174 23.0587C78.1095 24.7937 74.9913 26.2628 71.7929 27.4509C69.5666 20.5908 66.0628 14.2428 61.4964 8.75428C69.4853 11.2895 76.342 16.3797 81.1174 23.0587ZM38.3657 8.75544C33.8353 14.201 30.3535 20.4932 28.1261 27.2918C24.9532 26.0875 21.8594 24.6149 18.8782 22.8705C23.6467 16.2845 30.4511 11.2663 38.3657 8.75544ZM15.314 28.8596C18.8689 30.9419 22.5655 32.6828 26.362 34.0753C25.6408 37.7312 25.2517 41.4835 25.2517 45.2928C25.2517 49.102 25.6396 52.8543 26.362 56.5103C22.5655 57.9039 18.8689 59.6436 15.314 61.7259C12.939 56.7426 11.6058 51.1715 11.6058 45.2928C11.6058 39.414 12.939 33.843 15.314 28.8596ZM18.8782 67.7139C21.8582 65.9707 24.9521 64.4969 28.1261 63.2926C30.3535 70.0912 33.8353 76.3845 38.3657 81.8301C30.4511 79.3193 23.6467 74.3011 18.8782 67.7139ZM61.4964 81.8301C66.0628 76.3404 69.5655 69.9936 71.7918 63.1335C74.9902 64.3215 78.1084 65.7918 81.1163 67.5257C76.342 74.2047 69.4853 79.2949 61.4964 81.8301Z" fill="#000033"/>
</g>
<defs>
<filter id="filter0_d_956_19991" x="0.637695" y="0" width="98.5859" height="98.5859" filterUnits="userSpaceOnUse" color-interpolation-filters="sRGB">
<feFlood flood-opacity="0" result="BackgroundImageFix"/>
<feColorMatrix in="SourceAlpha" type="matrix" values="0 0 0 0 0 0 0 0 0 0 0 0 0 0 0 0 0 0 127 0" result="hardAlpha"/>
<feOffset dy="4"/>
<feGaussianBlur stdDeviation="2"/>
<feColorMatrix type="matrix" values="0 0 0 0 0 0 0 0 0 0 0 0 0 0 0 0 0 0 0.25 0"/>
<feBlend mode="normal" in2="BackgroundImageFix" result="effect1_dropShadow_956_19991"/>
<feBlend mode="normal" in="SourceGraphic" in2="effect1_dropShadow_956_19991" result="shape"/>
</filter>
</defs>
</svg>
