<svg width="53" height="52" viewBox="0 0 53 52" fill="none" xmlns="http://www.w3.org/2000/svg">
<g id="Group 1385">
<g id="Vector" filter="url(#filter0_d_956_19777)">
<path d="M43.2557 6.05469H10.043C8.21625 6.05469 6.72168 7.54926 6.72168 9.37596V42.5887C6.72168 44.4154 8.21625 45.91 10.043 45.91H43.2557C45.0824 45.91 46.577 44.4154 46.577 42.5887V9.37596C46.577 7.54926 45.0824 6.05469 43.2557 6.05469Z" fill="white"/>
</g>
<g id="Group">
<path id="Vector_2" d="M23.5703 16.5799C21.1812 17.4198 19.115 19.2289 17.9528 21.4903C17.5654 22.2656 17.2426 23.1056 17.1134 24.0101C16.6614 26.1423 16.9843 28.4682 17.9528 30.4066C18.5985 31.6988 19.5025 32.7971 20.6647 33.7017C21.6978 34.5416 22.9246 35.1877 24.2805 35.5108C25.9593 35.9631 27.7027 35.9631 29.3169 35.5754C30.802 35.2523 32.2225 34.5416 33.3847 33.4433C34.6115 32.3449 35.4509 30.9234 35.9029 29.3082C36.4194 27.6283 36.484 25.8192 36.1612 24.0747C33.0619 24.0747 29.9626 24.0747 26.8633 24.0747C26.8633 25.3669 26.8633 26.6592 26.8633 27.9514C28.6712 27.9514 30.4791 27.9514 32.2225 27.9514C32.0288 29.179 31.254 30.3419 30.2209 30.9881C29.5752 31.4403 28.8003 31.6988 28.0255 31.828C27.2507 31.9572 26.4113 31.9572 25.6365 31.828C24.8617 31.6988 24.0868 31.3111 23.4411 30.8588C22.4081 30.1481 21.5687 29.0497 21.1812 27.8221C20.7293 26.5945 20.7293 25.2377 21.1812 23.9455C21.5041 23.1056 21.9561 22.2656 22.6018 21.6195C23.3766 20.7796 24.4097 20.1981 25.5719 20.0043C26.5404 19.8104 27.509 19.8104 28.4775 20.1335C29.2523 20.3919 30.0272 20.8442 30.6083 21.3611C31.1894 20.7796 31.8351 20.1335 32.4162 19.552C32.739 19.2289 33.0619 18.9059 33.3847 18.5828C32.4808 17.7429 31.3831 17.0322 30.2209 16.5799C28.0901 15.8692 25.701 15.8692 23.5703 16.5799Z" fill="white"/>
<g id="Group_2">
<path id="Vector_3" d="M23.5715 16.5799C25.7022 15.8692 28.0913 15.8692 30.222 16.6445C31.3843 17.0968 32.4819 17.7429 33.3859 18.6474C33.063 18.9705 32.7402 19.2936 32.4174 19.6166C31.8362 20.1981 31.1906 20.8442 30.6094 21.4257C30.0283 20.8442 29.2535 20.3919 28.4787 20.1981C27.5747 19.9397 26.5416 19.875 25.5731 20.0689C24.4754 20.3273 23.4423 20.9088 22.6029 21.6841C21.9572 22.3302 21.4407 23.1702 21.1824 24.0101C20.0847 23.1702 19.0516 22.3302 17.954 21.4903C19.1162 19.2289 21.1824 17.4198 23.5715 16.5799Z" fill="#EA4335"/>
</g>
<g id="Group_3">
<path id="Vector_4" d="M17.1148 24.01C17.3085 23.1701 17.5667 22.3302 17.9542 21.4902C19.0518 22.3302 20.0849 23.1701 21.1826 24.01C20.7306 25.2376 20.7306 26.5945 21.1826 27.8867C20.0849 28.7266 19.0518 29.5665 17.9542 30.4065C16.9856 28.4036 16.6628 26.1422 17.1148 24.01Z" fill="#FBBC05"/>
</g>
<g id="Group_4">
<path id="Vector_5" d="M26.7985 24.0742C29.8978 24.0742 32.9971 24.0742 36.0963 24.0742C36.4192 25.8187 36.3546 27.6278 35.8381 29.3077C35.3861 30.8583 34.5467 32.2798 33.3199 33.4427C32.2868 32.6028 31.2537 31.8275 30.156 30.9875C31.1891 30.2768 31.8994 29.1784 32.1577 27.9508C30.3497 27.9508 28.5418 27.9508 26.7985 27.9508C26.7985 26.6586 26.7985 25.3664 26.7985 24.0742Z" fill="#4285F4"/>
</g>
<g id="Group_5">
<path id="Vector_6" d="M17.954 30.4065C19.0516 29.5666 20.0847 28.7267 21.1824 27.8867C21.5698 29.1143 22.4092 30.2127 23.4423 30.9234C24.088 31.3757 24.8628 31.6987 25.6376 31.8926C26.4125 32.0218 27.1873 32.0218 28.0267 31.8926C28.8015 31.7633 29.5763 31.4403 30.222 31.0526C31.2551 31.8926 32.2882 32.6679 33.3859 33.5078C32.2236 34.5416 30.8677 35.2523 29.3181 35.64C27.6393 36.0276 25.8959 36.0276 24.2817 35.5754C22.9903 35.2523 21.7635 34.6062 20.6659 33.7663C19.5682 32.7971 18.5997 31.6341 17.954 30.4065Z" fill="#34A853"/>
</g>
</g>
</g>
<defs>
<filter id="filter0_d_956_19777" x="0.72168" y="0.0546875" width="51.8553" height="51.8555" filterUnits="userSpaceOnUse" color-interpolation-filters="sRGB">
<feFlood flood-opacity="0" result="BackgroundImageFix"/>
<feColorMatrix in="SourceAlpha" type="matrix" values="0 0 0 0 0 0 0 0 0 0 0 0 0 0 0 0 0 0 127 0" result="hardAlpha"/>
<feOffset/>
<feGaussianBlur stdDeviation="3"/>
<feColorMatrix type="matrix" values="0 0 0 0 0 0 0 0 0 0 0 0 0 0 0 0 0 0 0.16 0"/>
<feBlend mode="normal" in2="BackgroundImageFix" result="effect1_dropShadow_956_19777"/>
<feBlend mode="normal" in="SourceGraphic" in2="effect1_dropShadow_956_19777" result="shape"/>
</filter>
</defs>
</svg>
