<svg width="36" height="30" viewBox="0 0 36 30" fill="none" xmlns="http://www.w3.org/2000/svg">
<g id="Logo">
<g id="Group 95">
<path id="Rectangle 47" d="M0.994141 10.7691C0.994141 10.2354 1.42952 9.80273 1.96659 9.80273H34.4853C35.0223 9.80273 35.4577 10.2354 35.4577 10.7691V22.863C35.4577 23.3968 35.0223 23.8294 34.4853 23.8294H1.96659C1.42952 23.8294 0.994141 23.3968 0.994141 22.863V10.7691Z" fill="#000033"/>
<g id="Group 95_2">
<path id="WBA" d="M12.1966 20.8903H11.287L9.40127 15.9898L7.50446 20.8903H6.60597L3.4668 12.7422H5.16394L7.03857 17.9337L8.94648 12.7422H9.84497L11.7529 17.9337L13.6275 12.7422H15.3246L12.1966 20.8903Z" fill="white"/>
<path id="WBA_2" d="M27.2872 19.4004L26.7022 20.8903H24.9121L28.2817 12.7422H29.2294L32.5522 20.8903H30.7621L30.1771 19.4004H27.2872ZM28.738 15.6522L27.8488 17.8755H29.6155L28.738 15.6522Z" fill="white"/>
<path id="WBA_3" d="M17.2051 12.7422H20.3641C20.9257 12.7422 21.4015 12.8159 21.7915 12.9634C22.1815 13.103 22.4662 13.2932 22.6456 13.5337C22.8328 13.7743 22.9615 14.0032 23.0317 14.2205C23.1019 14.4378 23.137 14.6667 23.137 14.9073C23.137 15.7764 22.7782 16.3545 22.0606 16.6416C22.4896 16.7425 22.8289 16.9676 23.0785 17.3168C23.3281 17.6582 23.4529 18.0695 23.4529 18.5506C23.4529 20.1104 22.4428 20.8903 20.4226 20.8903H17.2051V12.7422ZM18.8197 14.2554V16.0014H20.5396C20.9296 16.0014 21.2065 15.9161 21.3703 15.7454C21.5341 15.5669 21.616 15.3612 21.616 15.1284C21.616 14.5464 21.2572 14.2554 20.5396 14.2554H18.8197ZM18.8197 17.3866V19.3654H20.7619C21.1753 19.3654 21.4717 19.2762 21.6511 19.0977C21.8383 18.9115 21.9319 18.6709 21.9319 18.376C21.9319 18.0967 21.8344 17.8639 21.6394 17.6776C21.4522 17.4836 21.1597 17.3866 20.7619 17.3866H18.8197Z" fill="white"/>
</g>
</g>
<g id="Group 96">
<path id="BRICS" d="M0.994141 0.154297H3.96108C4.48854 0.154297 4.93541 0.223459 5.3017 0.361782C5.66799 0.492825 5.93538 0.67119 6.10388 0.896875C6.2797 1.12256 6.40057 1.33733 6.4665 1.54117C6.53243 1.74502 6.5654 1.95978 6.5654 2.18547C6.5654 3.00085 6.22842 3.54322 5.55444 3.81259C5.95736 3.90723 6.27603 4.11835 6.51046 4.44596C6.74488 4.76629 6.8621 5.15214 6.8621 5.60351C6.8621 7.06683 5.91341 7.79848 4.01603 7.79848H0.994141V0.154297ZM2.51058 1.57393V3.21197H4.12591C4.4922 3.21197 4.75227 3.13189 4.90611 2.97173C5.05995 2.80428 5.13687 2.61136 5.13687 2.39295C5.13687 1.84694 4.79989 1.57393 4.12591 1.57393H2.51058ZM2.51058 4.51148V6.36793H4.3347C4.72297 6.36793 5.00135 6.28421 5.16984 6.11676C5.34566 5.94204 5.43357 5.71635 5.43357 5.43971C5.43357 5.17762 5.342 4.95922 5.15885 4.78449C4.98303 4.60249 4.70831 4.51148 4.3347 4.51148H2.51058Z" fill="#000033"/>
<path id="BRICS_2" d="M8.60156 0.154297H11.2169C12.2645 0.154297 13.0813 0.427304 13.6673 0.973318C14.2607 1.51205 14.5574 2.20003 14.5574 3.03725C14.5574 3.6051 14.4109 4.09651 14.1179 4.51148C13.8322 4.92645 13.4256 5.23586 12.8981 5.43971C13.2205 5.64355 13.6014 6.09128 14.041 6.7829L14.7003 7.79848H12.997L12.5025 7.03407C12.1949 6.56813 11.9531 6.26965 11.7773 6.1386C11.6088 6.00756 11.3377 5.9384 10.9641 5.93112H10.118V7.79848H8.60156V0.154297ZM10.118 1.57393V4.51148H11.3597C11.8872 4.51148 12.3121 4.38772 12.6344 4.14019C12.9567 3.89267 13.1179 3.52502 13.1179 3.03725C13.1179 2.57132 12.9531 2.21095 12.6234 1.95614C12.3011 1.70133 11.8799 1.57393 11.3597 1.57393H10.118Z" fill="#000033"/>
<path id="BRICS_3" d="M18.7676 6.37885H19.6907V7.79848H16.3281V6.37885H17.2512V1.57393H16.3281V0.154297H19.6907V1.57393H18.7676V6.37885Z" fill="#000033"/>
<path id="BRICS_4" d="M25.0682 0C26.211 0 27.178 0.42225 27.9692 1.26675L26.9803 2.17313C26.4601 1.6708 25.8228 1.41963 25.0682 1.41963C24.3869 1.41963 23.8155 1.6526 23.354 2.11853C22.8998 2.58446 22.6727 3.1778 22.6727 3.89853C22.6727 4.62655 22.8998 5.22353 23.354 5.68946C23.8155 6.14811 24.3869 6.37744 25.0682 6.37744C25.8374 6.37744 26.4748 6.12627 26.9803 5.62394L27.9692 6.53032C27.178 7.37482 26.211 7.79707 25.0682 7.79707C23.984 7.79707 23.061 7.4185 22.2991 6.66136C21.5372 5.89694 21.1562 4.976 21.1562 3.89853C21.1562 2.82107 21.5372 1.90377 22.2991 1.14663C23.061 0.382209 23.984 0 25.0682 0Z" fill="#000033"/>
<path id="BRICS_5" d="M32.1606 0H32.2485C32.7759 0 33.2997 0.116483 33.8198 0.349449C34.34 0.575134 34.8052 0.880901 35.2154 1.26675L34.2264 2.17313C33.9481 1.94745 33.6184 1.76544 33.2374 1.62712C32.8638 1.4888 32.5342 1.41963 32.2485 1.41963H32.1606C31.8382 1.41963 31.5342 1.4888 31.2485 1.62712C30.9701 1.75816 30.8309 1.97293 30.8309 2.27142C30.8309 2.50438 30.9408 2.67547 31.1606 2.78467C31.3877 2.89387 31.7064 2.97395 32.1166 3.02491L32.732 3.09044C33.5891 3.19236 34.2557 3.42532 34.7319 3.78933C35.2154 4.14606 35.4572 4.69571 35.4572 5.43829C35.4572 6.15175 35.1751 6.72324 34.611 7.15278C34.0543 7.57503 33.34 7.78979 32.4682 7.79707H32.4023C31.6771 7.79707 31.0324 7.65511 30.4683 7.37118C29.9115 7.07997 29.4683 6.70868 29.1387 6.25731L30.1277 5.35093C30.3255 5.62758 30.6221 5.86782 31.0177 6.07167C31.4133 6.27551 31.8749 6.37744 32.4023 6.37744H32.4682C32.9151 6.37016 33.2704 6.28279 33.5341 6.11535C33.8052 5.9479 33.9407 5.72222 33.9407 5.43829C33.9407 5.13252 33.8198 4.91412 33.5781 4.78308C33.3363 4.64475 32.9847 4.54647 32.5232 4.48823L31.9188 4.42271C30.1826 4.21886 29.3145 3.51997 29.3145 2.32602C29.3145 1.62712 29.5819 1.07019 30.1167 0.655216C30.6588 0.232966 31.3401 0.0145602 32.1606 0Z" fill="#000033"/>
</g>
<path id="Rectangle 64" d="M0.955078 27.1754C0.955078 26.6417 1.39046 26.209 1.92753 26.209H7.84691V29.9998H1.92753C1.39046 29.9998 0.955078 29.5671 0.955078 29.0334V27.1754Z" fill="#509F67"/>
<path id="Rectangle 65" d="M7.84766 26.209H14.7395V29.9998H7.84766V26.209Z" fill="#3A4C8D"/>
<path id="Rectangle 66" d="M14.7383 26.209H21.6301V29.9998H14.7383V26.209Z" fill="#EB9952"/>
<path id="Rectangle 67" d="M21.6309 26.209H28.5227V29.9998H21.6309V26.209Z" fill="#D64F44"/>
<path id="Rectangle 68" d="M28.5215 26.209H34.4409C34.9779 26.209 35.4133 26.6417 35.4133 27.1754V29.0334C35.4133 29.5671 34.9779 29.9998 34.4409 29.9998H28.5215V26.209Z" fill="#F6D253"/>
</g>
</svg>
