<svg width="26" height="20" fill="none" xmlns="http://www.w3.org/2000/svg"><path d="M25.297 5.936a2.24 2.24 0 00-1.745-2.193l-9.76-2.253a2.262 2.262 0 00-1.001.003l-9.75 2.25a2.24 2.24 0 00-1.744 2.193A2.24 2.24 0 003.04 8.129l2.006.462v6.345c0 1.99 2.278 3.75 8.25 3.75 5.971 0 8.25-1.76 8.25-3.75V8.59l2.005-.462a2.24 2.24 0 001.745-2.193zm-5.25 9c0 .828-2.25 2.25-6.75 2.25s-6.75-1.422-6.75-2.25V8.938L12.8 10.38a2.271 2.271 0 001.002-.002l6.245-1.441v5.997zm-6.581-6.02a.807.807 0 01-.338 0l-9.75-2.25a.75.75 0 010-1.462l9.75-2.25a.797.797 0 01.338 0l9.75 2.25a.751.751 0 010 1.463l-9.75 2.25z" fill="#003" stroke="#003"/></svg>