<svg width="64" height="64" fill="none" xmlns="http://www.w3.org/2000/svg"><g filter="url(#filter0_d_1335_19778)"><path stroke="#003" stroke-width="6" stroke-linecap="round" stroke-linejoin="round" d="M32.032 20.488v15"/></g><g filter="url(#filter1_d_1335_19778)"><path stroke="#003" stroke-width="6" stroke-linecap="round" stroke-linejoin="round" d="M39.72 28.061h-15"/></g><g filter="url(#filter2_d_1335_19778)"><path d="M32.22.488c-15.187 0-27.5 12.312-27.5 27.5s12.313 27.5 27.5 27.5c15.188 0 27.5-12.312 27.5-27.5S47.408.488 32.22.488zm0 50c-12.426 0-22.5-10.074-22.5-22.5s10.074-22.5 22.5-22.5c12.427 0 22.5 10.074 22.5 22.5s-10.073 22.5-22.5 22.5z" fill="#003"/></g><defs><filter id="filter0_d_1335_19778" x="25.032" y="17.488" width="14" height="29" filterUnits="userSpaceOnUse" color-interpolation-filters="sRGB"><feFlood flood-opacity="0" result="BackgroundImageFix"/><feColorMatrix in="SourceAlpha" values="0 0 0 0 0 0 0 0 0 0 0 0 0 0 0 0 0 0 127 0" result="hardAlpha"/><feOffset dy="4"/><feGaussianBlur stdDeviation="2"/><feColorMatrix values="0 0 0 0 0 0 0 0 0 0 0 0 0 0 0 0 0 0 0.25 0"/><feBlend in2="BackgroundImageFix" result="effect1_dropShadow_1335_19778"/><feBlend in="SourceGraphic" in2="effect1_dropShadow_1335_19778" result="shape"/></filter><filter id="filter1_d_1335_19778" x="17.72" y="25.061" width="29" height="14" filterUnits="userSpaceOnUse" color-interpolation-filters="sRGB"><feFlood flood-opacity="0" result="BackgroundImageFix"/><feColorMatrix in="SourceAlpha" values="0 0 0 0 0 0 0 0 0 0 0 0 0 0 0 0 0 0 127 0" result="hardAlpha"/><feOffset dy="4"/><feGaussianBlur stdDeviation="2"/><feColorMatrix values="0 0 0 0 0 0 0 0 0 0 0 0 0 0 0 0 0 0 0.25 0"/><feBlend in2="BackgroundImageFix" result="effect1_dropShadow_1335_19778"/><feBlend in="SourceGraphic" in2="effect1_dropShadow_1335_19778" result="shape"/></filter><filter id="filter2_d_1335_19778" x=".72" y=".488" width="63" height="63" filterUnits="userSpaceOnUse" color-interpolation-filters="sRGB"><feFlood flood-opacity="0" result="BackgroundImageFix"/><feColorMatrix in="SourceAlpha" values="0 0 0 0 0 0 0 0 0 0 0 0 0 0 0 0 0 0 127 0" result="hardAlpha"/><feOffset dy="4"/><feGaussianBlur stdDeviation="2"/><feColorMatrix values="0 0 0 0 0 0 0 0 0 0 0 0 0 0 0 0 0 0 0.25 0"/><feBlend in2="BackgroundImageFix" result="effect1_dropShadow_1335_19778"/><feBlend in="SourceGraphic" in2="effect1_dropShadow_1335_19778" result="shape"/></filter></defs></svg>