<svg width="54" height="57" fill="none" xmlns="http://www.w3.org/2000/svg"><g filter="url(#filter0_d_58_1392)"><path d="M47.92 3.397a1.59 1.59 0 00-1.545-1.22h-.01C37.992 2.23 17.63 3.635 9.408 15.502c-4.27 6.165-4.638 14.17-1.092 23.792.027.075.082.125.119.194-1.267 3.137-1.759 5.224-1.771 5.283a1.592 1.592 0 003.11.668c.033-.163 4.084-16.492 18.405-26.039a1.588 1.588 0 00.44-2.205 1.587 1.587 0 00-2.204-.44c-8.121 5.413-13.123 12.731-16.064 18.53-2.105-7.277-1.554-13.317 1.672-17.973C18.371 8.148 33.43 5.938 42.518 5.471c-1.955 2.863-4.092 8.112-4.092 17.375 0 4.96-1.407 8.779-4.18 11.351-4.445 4.12-11.666 4.506-16.948 4.108a1.586 1.586 0 00-1.706 1.466 1.59 1.59 0 001.465 1.705c1.057.08 2.186.13 3.359.13 5.377 0 11.649-1.054 15.99-5.078 3.45-3.197 5.2-7.8 5.2-13.68 0-14.467 5.453-17.642 5.48-17.656a1.593 1.593 0 00.834-1.795z" fill="#003"/><path d="M47.92 3.397a1.59 1.59 0 00-1.545-1.22h-.01C37.992 2.23 17.63 3.635 9.408 15.502c-4.27 6.165-4.638 14.17-1.092 23.792.027.075.082.125.119.194-1.267 3.137-1.759 5.224-1.771 5.283a1.592 1.592 0 003.11.668c.033-.163 4.084-16.492 18.405-26.039a1.588 1.588 0 00.44-2.205 1.587 1.587 0 00-2.204-.44c-8.121 5.413-13.123 12.731-16.064 18.53-2.105-7.277-1.554-13.317 1.672-17.973C18.371 8.148 33.43 5.938 42.518 5.471c-1.955 2.863-4.092 8.112-4.092 17.375 0 4.96-1.407 8.779-4.18 11.351-4.445 4.12-11.666 4.506-16.948 4.108a1.586 1.586 0 00-1.706 1.466 1.59 1.59 0 001.465 1.705c1.057.08 2.186.13 3.359.13 5.377 0 11.649-1.054 15.99-5.078 3.45-3.197 5.2-7.8 5.2-13.68 0-14.467 5.453-17.642 5.48-17.656a1.593 1.593 0 00.834-1.795z" stroke="#003" stroke-width="3" stroke-linejoin="round"/></g><defs><filter id="filter0_d_58_1392" x=".406" y=".678" width="53.059" height="55.516" filterUnits="userSpaceOnUse" color-interpolation-filters="sRGB"><feFlood flood-opacity="0" result="BackgroundImageFix"/><feColorMatrix in="SourceAlpha" values="0 0 0 0 0 0 0 0 0 0 0 0 0 0 0 0 0 0 127 0" result="hardAlpha"/><feOffset dy="4"/><feGaussianBlur stdDeviation="2"/><feColorMatrix values="0 0 0 0 0 0 0 0 0 0 0 0 0 0 0 0 0 0 0.25 0"/><feBlend in2="BackgroundImageFix" result="effect1_dropShadow_58_1392"/><feBlend in="SourceGraphic" in2="effect1_dropShadow_58_1392" result="shape"/></filter></defs></svg>