<svg width="23" height="21" viewBox="0 0 23 21" fill="none" xmlns="http://www.w3.org/2000/svg">
<path d="M1.8457 1.01953H7.8457C8.90657 1.01953 9.92398 1.44096 10.6741 2.1911C11.4243 2.94125 11.8457 3.95867 11.8457 5.01953V19.0195C11.8457 18.2239 11.5296 17.4608 10.967 16.8982C10.4044 16.3356 9.64135 16.0195 8.8457 16.0195H1.8457V1.01953Z" stroke="#000033" stroke-width="2" stroke-linecap="round" stroke-linejoin="round"/>
<path d="M21.8457 1.01953H15.8457C14.7848 1.01953 13.7674 1.44096 13.0173 2.1911C12.2671 2.94125 11.8457 3.95867 11.8457 5.01953V19.0195C11.8457 18.2239 12.1618 17.4608 12.7244 16.8982C13.287 16.3356 14.0501 16.0195 14.8457 16.0195H21.8457V1.01953Z" stroke="#000033" stroke-width="2" stroke-linecap="round" stroke-linejoin="round"/>
</svg>
