<svg width="26" height="20" viewBox="0 0 26 20" fill="none" xmlns="http://www.w3.org/2000/svg">
<path id="Vector" d="M25.2969 5.93555C25.2969 4.88105 24.5791 3.97955 23.5524 3.74255L13.7926 1.4903C13.6291 1.45355 13.4626 1.43555 13.2969 1.43555C13.1311 1.43555 12.9646 1.45355 12.7906 1.49255L3.04137 3.74255C2.01388 3.97955 1.29688 4.88105 1.29688 5.93555C1.29688 6.99005 2.01463 7.89155 3.04063 8.12855L5.04688 8.5913V14.9355C5.04688 16.926 7.32538 18.6855 13.2969 18.6855C19.2684 18.6855 21.5469 16.926 21.5469 14.9355V8.5913L23.5524 8.12855C24.5791 7.89155 25.2969 6.99005 25.2969 5.93555ZM20.0469 14.9355C20.0469 15.7643 17.7969 17.1855 13.2969 17.1855C8.79688 17.1855 6.54688 15.7643 6.54688 14.9355V8.9378L12.8004 10.3808C12.9639 10.4175 13.1311 10.4355 13.2969 10.4355C13.4626 10.4355 13.6299 10.4175 13.8024 10.3785L20.0469 8.9378V14.9355ZM13.4656 8.9168C13.4094 8.9288 13.3531 8.93555 13.2969 8.93555C13.2406 8.93555 13.1836 8.9288 13.1281 8.9168L3.37813 6.6668C3.03763 6.58805 2.79688 6.28505 2.79688 5.93555C2.79688 5.58605 3.03763 5.28305 3.37813 5.2043L13.1281 2.9543C13.1836 2.9423 13.2399 2.93555 13.2969 2.93555C13.3539 2.93555 13.4101 2.9423 13.4656 2.9543L23.2156 5.2043C23.5554 5.28305 23.7969 5.58605 23.7969 5.93555C23.7969 6.28505 23.5554 6.58805 23.2156 6.6668L13.4656 8.9168Z" fill="#000033" stroke="#000033"/>
</svg>
