<svg width="27" height="31" viewBox="0 0 27 31" fill="none" xmlns="http://www.w3.org/2000/svg">
<g id="Group 851">
<path id="icon/action/today_24px" fill-rule="evenodd" clip-rule="evenodd" d="M22.4961 3.47266H23.9961C25.6461 3.47266 26.9961 4.82266 26.9961 6.47266V27.4727C26.9961 29.1227 25.6461 30.4727 23.9961 30.4727H2.99609C1.33109 30.4727 -0.00390625 29.1227 -0.00390625 27.4727V6.47266C-0.00390625 4.82266 1.33109 3.47266 2.99609 3.47266H4.49609V0.472656H7.49609V3.47266H19.4961V0.472656H22.4961V3.47266ZM2.99609 12.4727V27.4727H23.9961V12.4727H2.99609ZM23.9961 9.47266H2.99609V6.47266H23.9961V9.47266Z" fill="#000033"/>
<path id="Star 3" d="M13.4963 13.5879L15.4191 17.3304L19.5726 18.0025L16.6074 20.9876L17.2517 25.1456L13.4963 23.2479L9.74103 25.1456L10.3853 20.9876L7.42012 18.0025L11.5736 17.3304L13.4963 13.5879Z" fill="#000033"/>
</g>
</svg>
