<svg width="43" height="27" viewBox="0 0 43 27" fill="none" xmlns="http://www.w3.org/2000/svg">
<g id="Group 1393">
<path id="icon/action/today_24px" fill-rule="evenodd" clip-rule="evenodd" d="M38.5 0H40C41.65 0 43 1.35 43 3V24C43 25.65 41.65 27 40 27H3C1.335 27 0 25.65 0 24V3C0 1.35 1.335 0 3 0H4.5H7.5H19.5H38.5ZM3 9V24H40V9H22.5H6H3ZM40 6H21.5H6H3V3H40V6Z" fill="#000033"/>
<circle id="Ellipse 234" cx="15" cy="13.0605" r="7.5" fill="white" stroke="#000033" stroke-width="3"/>
<line id="Line 159" x1="28" y1="12.5605" x2="36" y2="12.5605" stroke="#000033" stroke-width="3"/>
<line id="Line 160" x1="28" y1="17.5605" x2="36" y2="17.5605" stroke="#000033" stroke-width="3"/>
</g>
</svg>
