<svg width="93" height="93" viewBox="0 0 93 93" fill="none" xmlns="http://www.w3.org/2000/svg">
<g id="Group 547">
<g id="Group 544">
<g id="Rectangle 860" filter="url(#filter0_d_87_4013)">
<rect x="0.884766" y="0.914062" width="87.5142" height="87.5142" rx="5" fill="white"/>
<rect x="1.38477" y="1.41406" width="86.5142" height="86.5142" rx="4.5" stroke="#000033"/>
</g>
</g>
<g id="Group 546">
<g id="Vector" filter="url(#filter1_d_87_4013)">
<path d="M44.6416 17.1719C29.4541 17.1719 17.1416 29.4837 17.1416 44.6719C17.1416 59.86 29.4541 72.1719 44.6416 72.1719C59.8291 72.1719 72.1416 59.86 72.1416 44.6719C72.1416 29.4837 59.8291 17.1719 44.6416 17.1719ZM44.6416 67.1719C32.2154 67.1719 22.1416 57.0981 22.1416 44.6719C22.1416 32.2456 32.2154 22.1719 44.6416 22.1719C57.0679 22.1719 67.1416 32.2456 67.1416 44.6719C67.1416 57.0981 57.0679 67.1719 44.6416 67.1719Z" fill="#000033"/>
</g>
<g id="Vector_2" filter="url(#filter2_d_87_4013)">
<path d="M54.8189 37.9036C53.8427 36.928 52.2595 36.928 51.2833 37.9036L42.4446 46.743L38.9089 43.2073C37.9327 42.2311 36.3502 42.2311 35.3733 43.2073C34.3971 44.1836 34.3971 45.7667 35.3733 46.7436L40.6758 52.0455C41.652 53.0217 43.2358 53.0217 44.212 52.0455L54.8183 41.4392C55.7952 40.463 55.7964 38.8805 54.8189 37.9036Z" fill="#000033"/>
</g>
</g>
</g>
<defs>
<filter id="filter0_d_87_4013" x="0.884766" y="0.914062" width="91.5142" height="91.5137" filterUnits="userSpaceOnUse" color-interpolation-filters="sRGB">
<feFlood flood-opacity="0" result="BackgroundImageFix"/>
<feColorMatrix in="SourceAlpha" type="matrix" values="0 0 0 0 0 0 0 0 0 0 0 0 0 0 0 0 0 0 127 0" result="hardAlpha"/>
<feOffset dx="4" dy="4"/>
<feComposite in2="hardAlpha" operator="out"/>
<feColorMatrix type="matrix" values="0 0 0 0 0 0 0 0 0 0 0 0 0 0 0 0 0 0 0.25 0"/>
<feBlend mode="normal" in2="BackgroundImageFix" result="effect1_dropShadow_87_4013"/>
<feBlend mode="normal" in="SourceGraphic" in2="effect1_dropShadow_87_4013" result="shape"/>
</filter>
<filter id="filter1_d_87_4013" x="13.1416" y="17.1719" width="63" height="63" filterUnits="userSpaceOnUse" color-interpolation-filters="sRGB">
<feFlood flood-opacity="0" result="BackgroundImageFix"/>
<feColorMatrix in="SourceAlpha" type="matrix" values="0 0 0 0 0 0 0 0 0 0 0 0 0 0 0 0 0 0 127 0" result="hardAlpha"/>
<feOffset dy="4"/>
<feGaussianBlur stdDeviation="2"/>
<feColorMatrix type="matrix" values="0 0 0 0 0 0 0 0 0 0 0 0 0 0 0 0 0 0 0.25 0"/>
<feBlend mode="normal" in2="BackgroundImageFix" result="effect1_dropShadow_87_4013"/>
<feBlend mode="normal" in="SourceGraphic" in2="effect1_dropShadow_87_4013" result="shape"/>
</filter>
<filter id="filter2_d_87_4013" x="30.6411" y="37.1719" width="28.9102" height="23.6055" filterUnits="userSpaceOnUse" color-interpolation-filters="sRGB">
<feFlood flood-opacity="0" result="BackgroundImageFix"/>
<feColorMatrix in="SourceAlpha" type="matrix" values="0 0 0 0 0 0 0 0 0 0 0 0 0 0 0 0 0 0 127 0" result="hardAlpha"/>
<feOffset dy="4"/>
<feGaussianBlur stdDeviation="2"/>
<feColorMatrix type="matrix" values="0 0 0 0 0 0 0 0 0 0 0 0 0 0 0 0 0 0 0.25 0"/>
<feBlend mode="normal" in2="BackgroundImageFix" result="effect1_dropShadow_87_4013"/>
<feBlend mode="normal" in="SourceGraphic" in2="effect1_dropShadow_87_4013" result="shape"/>
</filter>
</defs>
</svg>
