<svg width="93" height="93" viewBox="0 0 93 93" fill="none" xmlns="http://www.w3.org/2000/svg">
<g id="Group 537">
<g id="Group 525">
<g id="Rectangle 856" filter="url(#filter0_d_87_3947)">
<rect x="0.772949" y="0.914062" width="87.5142" height="87.5142" rx="5" fill="white"/>
<rect x="1.27295" y="1.41406" width="86.5142" height="86.5142" rx="4.5" stroke="#000033"/>
</g>
</g>
<g id="Group 532" filter="url(#filter1_d_87_3947)">
<path id="Vector" d="M33.4995 56.9326C30.3802 56.9326 27.3887 55.6935 25.1831 53.4878C22.9774 51.2822 21.7383 48.2907 21.7383 45.1714C21.7383 42.0521 22.9774 39.0606 25.1831 36.8549C27.3887 34.6493 30.3802 33.4102 33.4995 33.4102H40.5562C43.6755 33.4102 46.667 34.6493 48.8727 36.8549C51.0784 39.0606 52.3175 42.0521 52.3175 45.1714C52.3175 45.7952 52.0697 46.3935 51.6285 46.8347C51.1874 47.2758 50.5891 47.5236 49.9652 47.5236C49.3414 47.5236 48.7431 47.2758 48.3019 46.8347C47.8608 46.3935 47.613 45.7952 47.613 45.1714C47.613 43.2998 46.8695 41.5049 45.5461 40.1815C44.2227 38.8581 42.4278 38.1146 40.5562 38.1146H33.4995C31.6279 38.1146 29.833 38.8581 28.5096 40.1815C27.1862 41.5049 26.4428 43.2998 26.4428 45.1714C26.4428 47.0429 27.1862 48.8379 28.5096 50.1613C29.833 51.4846 31.6279 52.2281 33.4995 52.2281C34.1234 52.2281 34.7217 52.476 35.1628 52.9171C35.6039 53.3582 35.8518 53.9565 35.8518 54.5804C35.8518 55.2042 35.6039 55.8025 35.1628 56.2437C34.7217 56.6848 34.1234 56.9326 33.4995 56.9326Z" fill="#000033" stroke="#000033" stroke-linejoin="round"/>
<path id="Vector_2" d="M57.0221 56.9326H49.9653C46.8461 56.9326 43.8545 55.6935 41.6489 53.4878C39.4432 51.2822 38.2041 48.2907 38.2041 45.1714C38.2041 44.5475 38.4519 43.9492 38.8931 43.5081C39.3342 43.067 39.9325 42.8191 40.5563 42.8191C41.1802 42.8191 41.7785 43.067 42.2196 43.5081C42.6608 43.9492 42.9086 44.5475 42.9086 45.1714C42.9086 47.0429 43.6521 48.8379 44.9755 50.1613C46.2989 51.4846 48.0938 52.2281 49.9653 52.2281H57.0221C58.8936 52.2281 60.6885 51.4846 62.0119 50.1613C63.3353 48.8379 64.0788 47.0429 64.0788 45.1714C64.0788 43.2998 63.3353 41.5049 62.0119 40.1815C60.6885 38.8581 58.8936 38.1146 57.0221 38.1146C56.3982 38.1146 55.7999 37.8668 55.3588 37.4257C54.9176 36.9846 54.6698 36.3863 54.6698 35.7624C54.6698 35.1385 54.9176 34.5402 55.3588 34.0991C55.7999 33.658 56.3982 33.4102 57.0221 33.4102C60.1413 33.4102 63.1329 34.6493 65.3385 36.8549C67.5442 39.0606 68.7833 42.0521 68.7833 45.1714C68.7833 48.2907 67.5442 51.2822 65.3385 53.4878C63.1329 55.6935 60.1413 56.9326 57.0221 56.9326Z" fill="#000033" stroke="#000033" stroke-linejoin="round"/>
</g>
</g>
<defs>
<filter id="filter0_d_87_3947" x="0.772949" y="0.914062" width="91.5142" height="91.5137" filterUnits="userSpaceOnUse" color-interpolation-filters="sRGB">
<feFlood flood-opacity="0" result="BackgroundImageFix"/>
<feColorMatrix in="SourceAlpha" type="matrix" values="0 0 0 0 0 0 0 0 0 0 0 0 0 0 0 0 0 0 127 0" result="hardAlpha"/>
<feOffset dx="4" dy="4"/>
<feComposite in2="hardAlpha" operator="out"/>
<feColorMatrix type="matrix" values="0 0 0 0 0 0 0 0 0 0 0 0 0 0 0 0 0 0 0.25 0"/>
<feBlend mode="normal" in2="BackgroundImageFix" result="effect1_dropShadow_87_3947"/>
<feBlend mode="normal" in="SourceGraphic" in2="effect1_dropShadow_87_3947" result="shape"/>
</filter>
<filter id="filter1_d_87_3947" x="17.2383" y="32.9102" width="56.0449" height="32.5234" filterUnits="userSpaceOnUse" color-interpolation-filters="sRGB">
<feFlood flood-opacity="0" result="BackgroundImageFix"/>
<feColorMatrix in="SourceAlpha" type="matrix" values="0 0 0 0 0 0 0 0 0 0 0 0 0 0 0 0 0 0 127 0" result="hardAlpha"/>
<feOffset dy="4"/>
<feGaussianBlur stdDeviation="2"/>
<feColorMatrix type="matrix" values="0 0 0 0 0 0 0 0 0 0 0 0 0 0 0 0 0 0 0.25 0"/>
<feBlend mode="normal" in2="BackgroundImageFix" result="effect1_dropShadow_87_3947"/>
<feBlend mode="normal" in="SourceGraphic" in2="effect1_dropShadow_87_3947" result="shape"/>
</filter>
</defs>
</svg>
