<svg width="92" height="93" viewBox="0 0 92 93" fill="none" xmlns="http://www.w3.org/2000/svg">
<g id="Group 540">
<g id="Group 538">
<g id="Group 525">
<g id="Rectangle 856" filter="url(#filter0_d_87_3966)">
<rect x="0.462891" y="0.914062" width="87.5142" height="87.5142" rx="5" fill="white"/>
<rect x="0.962891" y="1.41406" width="86.5142" height="86.5142" rx="4.5" stroke="#000033"/>
</g>
</g>
</g>
<g id="icon/maps/near_me_24px" filter="url(#filter1_d_87_3966)">
<path fill-rule="evenodd" clip-rule="evenodd" d="M59.096 60.6728C59.3811 60.3877 59.4671 59.9593 59.3142 59.5862L45.1461 25.0388C44.8066 24.2112 43.6345 24.2115 43.2954 25.0393L29.1405 59.6011C28.9878 59.974 29.0738 60.4022 29.3588 60.6872L29.8398 61.1682C30.1321 61.4605 30.574 61.5428 30.952 61.3754L43.8158 55.6762C44.0734 55.5621 44.3671 55.5619 44.6248 55.6757L57.5036 61.3619C57.8813 61.5286 58.3227 61.4461 58.6146 61.1542L59.096 60.6728Z" stroke="#000033" stroke-width="6" stroke-linecap="round" stroke-linejoin="round"/>
</g>
</g>
<defs>
<filter id="filter0_d_87_3966" x="0.462891" y="0.914062" width="91.5142" height="91.5137" filterUnits="userSpaceOnUse" color-interpolation-filters="sRGB">
<feFlood flood-opacity="0" result="BackgroundImageFix"/>
<feColorMatrix in="SourceAlpha" type="matrix" values="0 0 0 0 0 0 0 0 0 0 0 0 0 0 0 0 0 0 127 0" result="hardAlpha"/>
<feOffset dx="4" dy="4"/>
<feComposite in2="hardAlpha" operator="out"/>
<feColorMatrix type="matrix" values="0 0 0 0 0 0 0 0 0 0 0 0 0 0 0 0 0 0 0.25 0"/>
<feBlend mode="normal" in2="BackgroundImageFix" result="effect1_dropShadow_87_3966"/>
<feBlend mode="normal" in="SourceGraphic" in2="effect1_dropShadow_87_3966" result="shape"/>
</filter>
<filter id="filter1_d_87_3966" x="22.0659" y="21.418" width="44.3232" height="51.043" filterUnits="userSpaceOnUse" color-interpolation-filters="sRGB">
<feFlood flood-opacity="0" result="BackgroundImageFix"/>
<feColorMatrix in="SourceAlpha" type="matrix" values="0 0 0 0 0 0 0 0 0 0 0 0 0 0 0 0 0 0 127 0" result="hardAlpha"/>
<feOffset dy="4"/>
<feGaussianBlur stdDeviation="2"/>
<feColorMatrix type="matrix" values="0 0 0 0 0 0 0 0 0 0 0 0 0 0 0 0 0 0 0.25 0"/>
<feBlend mode="normal" in2="BackgroundImageFix" result="effect1_dropShadow_87_3966"/>
<feBlend mode="normal" in="SourceGraphic" in2="effect1_dropShadow_87_3966" result="shape"/>
</filter>
</defs>
</svg>
