<svg width="57" height="55" viewBox="0 0 57 55" fill="none" xmlns="http://www.w3.org/2000/svg">
<g id="Star 2" filter="url(#filter0_d_58_1402)">
<path d="M27.7939 4.29985C28.1857 3.67384 29.0975 3.67384 29.4893 4.29985L36.1127 14.8835C36.2499 15.1028 36.4668 15.2603 36.7178 15.3231L48.8301 18.3518C49.5465 18.5309 49.8283 19.3981 49.354 19.9642L41.3351 29.5339C41.169 29.7322 41.0861 29.9871 41.104 30.2452L41.9665 42.7007C42.0175 43.4374 41.2798 43.9734 40.5949 43.6972L29.0156 39.028C28.7756 38.9312 28.5076 38.9312 28.2676 39.028L16.6883 43.6972C16.0034 43.9734 15.2657 43.4374 15.3167 42.7007L16.1792 30.2452C16.1971 29.9871 16.1142 29.7322 15.9481 29.5339L7.92919 19.9642C7.45489 19.3981 7.73666 18.5309 8.45309 18.3518L20.5654 15.3231C20.8164 15.2603 21.0333 15.1028 21.1705 14.8835L27.7939 4.29985Z" stroke="#000033" stroke-width="6" stroke-linecap="round" stroke-linejoin="round"/>
</g>
<defs>
<filter id="filter0_d_58_1402" x="0.692871" y="0.830078" width="55.8975" height="53.9453" filterUnits="userSpaceOnUse" color-interpolation-filters="sRGB">
<feFlood flood-opacity="0" result="BackgroundImageFix"/>
<feColorMatrix in="SourceAlpha" type="matrix" values="0 0 0 0 0 0 0 0 0 0 0 0 0 0 0 0 0 0 127 0" result="hardAlpha"/>
<feOffset dy="4"/>
<feGaussianBlur stdDeviation="2"/>
<feColorMatrix type="matrix" values="0 0 0 0 0 0 0 0 0 0 0 0 0 0 0 0 0 0 0.25 0"/>
<feBlend mode="normal" in2="BackgroundImageFix" result="effect1_dropShadow_58_1402"/>
<feBlend mode="normal" in="SourceGraphic" in2="effect1_dropShadow_58_1402" result="shape"/>
</filter>
</defs>
</svg>
