<svg width="54" height="57" viewBox="0 0 54 57" fill="none" xmlns="http://www.w3.org/2000/svg">
<g id="Vector" filter="url(#filter0_d_58_1392)">
<path d="M47.9204 3.39715C47.7503 2.68172 47.108 2.17773 46.3751 2.17773C46.3719 2.17773 46.3687 2.17773 46.3655 2.17773C37.9918 2.2302 17.629 3.63404 9.40783 15.5007C5.13749 21.6661 4.77023 29.6711 8.3156 39.2928C8.34263 39.3676 8.39827 39.4184 8.43484 39.4868C7.16773 42.6236 6.67646 44.7111 6.66375 44.7699C6.47932 45.6284 7.02782 46.4742 7.88634 46.6586C7.99763 46.6825 8.10892 46.6936 8.22021 46.6936C8.95313 46.6936 9.61292 46.1833 9.7735 45.4376C9.80688 45.2755 13.8578 28.9461 28.1792 19.399C28.9106 18.9125 29.1077 17.9252 28.6196 17.1939C28.1315 16.4626 27.1458 16.2638 26.4145 16.7535C18.2935 22.167 13.2918 29.485 10.3506 35.2848C8.24565 28.0065 8.79733 21.9666 12.0231 17.3115C18.3714 8.14763 33.4289 5.93774 42.5181 5.47032C40.5626 8.33364 38.4258 13.5833 38.4258 22.8458C38.4258 27.8062 37.0188 31.625 34.2461 34.1974C29.8009 38.3167 22.5798 38.703 17.2983 38.3055C16.4207 38.234 15.6591 38.8954 15.5924 39.7714C15.5256 40.6458 16.1822 41.4089 17.0566 41.4757C18.1139 41.5568 19.2427 41.6061 20.416 41.6061C25.7929 41.6061 32.0648 40.552 36.4067 36.5281C39.8567 33.3309 41.6055 28.7283 41.6055 22.8474C41.6055 8.38134 47.0587 5.2064 47.0857 5.1921C47.7471 4.85982 48.0937 4.11576 47.9204 3.39715Z" fill="#000033"/>
<path d="M47.9204 3.39715C47.7503 2.68172 47.108 2.17773 46.3751 2.17773C46.3719 2.17773 46.3687 2.17773 46.3655 2.17773C37.9918 2.2302 17.629 3.63404 9.40783 15.5007C5.13749 21.6661 4.77023 29.6711 8.3156 39.2928C8.34263 39.3676 8.39827 39.4184 8.43484 39.4868C7.16773 42.6236 6.67646 44.7111 6.66375 44.7699C6.47932 45.6284 7.02782 46.4742 7.88634 46.6586C7.99763 46.6825 8.10892 46.6936 8.22021 46.6936C8.95313 46.6936 9.61292 46.1833 9.7735 45.4376C9.80688 45.2755 13.8578 28.9461 28.1792 19.399C28.9106 18.9125 29.1077 17.9252 28.6196 17.1939C28.1315 16.4626 27.1458 16.2638 26.4145 16.7535C18.2935 22.167 13.2918 29.485 10.3506 35.2848C8.24565 28.0065 8.79733 21.9666 12.0231 17.3115C18.3714 8.14763 33.4289 5.93774 42.5181 5.47032C40.5626 8.33364 38.4258 13.5833 38.4258 22.8458C38.4258 27.8062 37.0188 31.625 34.2461 34.1974C29.8009 38.3167 22.5798 38.703 17.2983 38.3055C16.4207 38.234 15.6591 38.8954 15.5924 39.7714C15.5256 40.6458 16.1822 41.4089 17.0566 41.4757C18.1139 41.5568 19.2427 41.6061 20.416 41.6061C25.7929 41.6061 32.0648 40.552 36.4067 36.5281C39.8567 33.3309 41.6055 28.7283 41.6055 22.8474C41.6055 8.38134 47.0587 5.2064 47.0857 5.1921C47.7471 4.85982 48.0937 4.11576 47.9204 3.39715Z" stroke="#000033" stroke-width="3" stroke-linejoin="round"/>
</g>
<defs>
<filter id="filter0_d_58_1392" x="0.405762" y="0.677734" width="53.0591" height="55.5156" filterUnits="userSpaceOnUse" color-interpolation-filters="sRGB">
<feFlood flood-opacity="0" result="BackgroundImageFix"/>
<feColorMatrix in="SourceAlpha" type="matrix" values="0 0 0 0 0 0 0 0 0 0 0 0 0 0 0 0 0 0 127 0" result="hardAlpha"/>
<feOffset dy="4"/>
<feGaussianBlur stdDeviation="2"/>
<feColorMatrix type="matrix" values="0 0 0 0 0 0 0 0 0 0 0 0 0 0 0 0 0 0 0.25 0"/>
<feBlend mode="normal" in2="BackgroundImageFix" result="effect1_dropShadow_58_1392"/>
<feBlend mode="normal" in="SourceGraphic" in2="effect1_dropShadow_58_1392" result="shape"/>
</filter>
</defs>
</svg>
