<svg width="211" height="168" viewBox="0 0 211 168" fill="none" xmlns="http://www.w3.org/2000/svg">
<g id="Group 543">
<g id="Ellipse 193 (Stroke)" filter="url(#filter0_d_87_3977)">
<path d="M67.4272 118.093C85.3072 125.97 105.948 119.136 115.798 102.854C117.229 100.487 120.159 99.3147 122.69 100.43L134.179 105.491C136.71 106.607 137.875 109.578 136.558 112.011C121.586 139.678 87.6222 151.654 58.3274 138.748C27.4899 125.163 13.5043 89.1509 27.0897 58.3134C39.9954 29.0186 73.1399 14.9318 102.861 25.2424C105.474 26.1489 106.621 29.1276 105.505 31.6588L100.444 43.1481C99.3287 45.6793 96.3758 46.7912 93.7221 46.0111C75.4653 40.6448 55.6223 49.5332 47.7453 67.4132C39.1855 86.8429 47.9974 109.533 67.4272 118.093Z" fill="#000033"/>
</g>
<g id="Group 527" filter="url(#filter1_d_87_3977)">
<path id="Rectangle 49" d="M100.174 69.5734C100.527 70.4832 101.551 70.9343 102.461 70.5809C103.371 70.2276 103.822 69.2036 103.469 68.2938L103.091 67.3215C102.738 66.4117 101.714 65.9606 100.804 66.3139C99.8941 66.6673 99.443 67.6912 99.7963 68.601L100.174 69.5734Z" fill="#000033"/>
<path id="Rectangle 50" d="M106.575 66.5286C107.032 67.7069 108.358 68.2911 109.537 67.8335L121.743 63.093C122.921 62.6354 123.506 61.3093 123.048 60.131C122.59 58.9527 121.264 58.3684 120.086 58.826L107.879 63.5665C106.701 64.0241 106.117 65.3503 106.575 66.5286Z" fill="#000033"/>
<path id="Rectangle 51" d="M126.343 58.8509C126.801 60.0292 128.127 60.6134 129.305 60.1558L144.396 54.2951C145.574 53.8375 146.159 52.5113 145.701 51.333C145.243 50.1547 143.917 49.5705 142.739 50.0281L127.648 55.8888C126.47 56.3464 125.885 57.6726 126.343 58.8509Z" fill="#000033"/>
<path id="Rectangle 53" d="M159.219 46.0833C159.677 47.2616 161.003 47.8458 162.181 47.3882L191.999 35.8083C193.177 35.3507 193.761 34.0246 193.303 32.8463C192.846 31.668 191.52 31.0837 190.341 31.5413L160.524 43.1212C159.346 43.5788 158.761 44.905 159.219 46.0833Z" fill="#000033"/>
<path id="Rectangle 52" d="M148.996 50.054C149.453 51.2323 150.78 51.8165 151.958 51.3589L154.621 50.3248C155.799 49.8672 156.383 48.5411 155.926 47.3628C155.468 46.1845 154.142 45.6002 152.964 46.0578L150.301 47.0919C149.123 47.5495 148.538 48.8757 148.996 50.054Z" fill="#000033"/>
<path id="Rectangle 49_2" d="M170.28 50.1864C169.927 49.2766 168.903 48.8255 167.993 49.1788C167.083 49.5322 166.632 50.5561 166.985 51.4659L167.363 52.4383C167.716 53.3481 168.74 53.7992 169.65 53.4458C170.56 53.0925 171.011 52.0685 170.658 51.1587L170.28 50.1864Z" fill="#000033"/>
<path id="Rectangle 50_2" d="M163.879 53.2292C163.422 52.0509 162.095 51.4667 160.917 51.9243L148.711 56.6648C147.532 57.1224 146.948 58.4485 147.406 59.6268C147.863 60.8051 149.189 61.3894 150.368 60.9318L162.574 56.1913C163.752 55.7337 164.337 54.4075 163.879 53.2292Z" fill="#000033"/>
<path id="Rectangle 51_2" d="M144.111 60.9069C143.653 59.7286 142.327 59.1444 141.149 59.602L126.058 65.4627C124.88 65.9203 124.295 67.2465 124.753 68.4248C125.211 69.6031 126.537 70.1874 127.715 69.7297L142.806 63.869C143.984 63.4114 144.569 62.0852 144.111 60.9069Z" fill="#000033"/>
<path id="Rectangle 53_2" d="M111.234 73.6745C110.776 72.4962 109.45 71.912 108.272 72.3696L78.4541 83.9495C77.2758 84.4071 76.6916 85.7333 77.1492 86.9116C77.6068 88.0899 78.933 88.6741 80.1113 88.2165L109.929 76.6366C111.107 76.179 111.691 74.8528 111.234 73.6745Z" fill="#000033"/>
<path id="Rectangle 52_2" d="M121.458 69.7058C121.001 68.5275 119.674 67.9432 118.496 68.4008L115.833 69.4349C114.655 69.8925 114.071 71.2187 114.528 72.397C114.986 73.5753 116.312 74.1595 117.491 73.7019L120.153 72.6678C121.332 72.2102 121.916 70.8841 121.458 69.7058Z" fill="#000033"/>
<path id="Rectangle 49_3" d="M85.1144 93.3312C85.4677 94.241 86.4917 94.6921 87.4015 94.3388C88.3113 93.9854 88.7624 92.9614 88.4091 92.0516L88.0315 91.0793C87.6781 90.1695 86.6542 89.7184 85.7444 90.0717C84.8346 90.4251 84.3834 91.449 84.7368 92.3589L85.1144 93.3312Z" fill="#000033"/>
<path id="Rectangle 50_3" d="M91.5154 90.2884C91.973 91.4667 93.2992 92.0509 94.4775 91.5933L106.684 86.8528C107.862 86.3952 108.446 85.069 107.989 83.8907C107.531 82.7124 106.205 82.1282 105.027 82.5858L92.8204 87.3263C91.6421 87.7839 91.0578 89.1101 91.5154 90.2884Z" fill="#000033"/>
<path id="Rectangle 51_3" d="M111.284 82.6126C111.742 83.7909 113.068 84.3751 114.246 83.9175L129.337 78.0568C130.515 77.5992 131.1 76.273 130.642 75.0947C130.184 73.9164 128.858 73.3322 127.68 73.7898L112.589 79.6505C111.411 80.1081 110.826 81.4343 111.284 82.6126Z" fill="#000033"/>
<path id="Rectangle 53_3" d="M144.161 69.8431C144.619 71.0214 145.945 71.6056 147.123 71.148L176.94 59.5681C178.119 59.1105 178.703 57.7843 178.245 56.606C177.788 55.4277 176.462 54.8435 175.283 55.3011L145.466 66.881C144.288 67.3386 143.703 68.6648 144.161 69.8431Z" fill="#000033"/>
<path id="Rectangle 52_3" d="M133.937 73.8138C134.394 74.9921 135.721 75.5763 136.899 75.1187L139.562 74.0846C140.74 73.627 141.324 72.3008 140.867 71.1225C140.409 69.9442 139.083 69.36 137.904 69.8176L135.242 70.8517C134.063 71.3093 133.479 72.6355 133.937 73.8138Z" fill="#000033"/>
<path id="Rectangle 49_4" d="M197.803 58.5265C198.156 59.4363 197.705 60.4603 196.795 60.8136C195.885 61.1669 194.862 60.7158 194.508 59.806L194.131 58.8337C193.777 57.9239 194.228 56.8999 195.138 56.5466C196.048 56.1933 197.072 56.6444 197.425 57.5542L197.803 58.5265Z" fill="#000033"/>
<path id="Rectangle 50_4" d="M191.027 60.5989C191.484 61.7772 190.9 63.1034 189.722 63.561L177.515 68.3015C176.337 68.7591 175.011 68.1749 174.553 66.9966C174.096 65.8183 174.68 64.4921 175.858 64.0345L188.065 59.294C189.243 58.8364 190.569 59.4206 191.027 60.5989Z" fill="#000033"/>
<path id="Rectangle 51_4" d="M171.258 68.2767C171.716 69.455 171.131 70.7811 169.953 71.2387L154.862 77.0995C153.684 77.5571 152.358 76.9728 151.9 75.7945C151.443 74.6162 152.027 73.2901 153.205 72.8325L168.296 66.9717C169.474 66.5141 170.8 67.0983 171.258 68.2767Z" fill="#000033"/>
<path id="Rectangle 53_4" d="M138.381 81.0462C138.839 82.2245 138.255 83.5507 137.076 84.0083L107.259 95.5882C106.081 96.0458 104.754 95.4615 104.297 94.2832C103.839 93.1049 104.423 91.7788 105.602 91.3212L135.419 79.7412C136.597 79.2836 137.924 79.8679 138.381 81.0462Z" fill="#000033"/>
<path id="Rectangle 52_4" d="M148.605 77.0755C149.063 78.2538 148.479 79.5799 147.3 80.0376L144.638 81.0716C143.459 81.5293 142.133 80.945 141.676 79.7667C141.218 78.5884 141.802 77.2622 142.98 76.8046L145.643 75.7705C146.821 75.3129 148.148 75.8972 148.605 77.0755Z" fill="#000033"/>
<path id="Rectangle 49_5" d="M206.818 19.2003C207.171 20.1101 206.72 21.1341 205.81 21.4874C204.901 21.8408 203.877 21.3896 203.523 20.4798L203.146 19.5075C202.792 18.5977 203.243 17.5737 204.153 17.2204C205.063 16.8671 206.087 17.3182 206.44 18.228L206.818 19.2003Z" fill="#000033"/>
<path id="Rectangle 50_5" d="M200.04 21.2727C200.497 22.451 199.913 23.7772 198.735 24.2348L186.528 28.9753C185.35 29.4329 184.024 28.8487 183.566 27.6704C183.109 26.4921 183.693 25.1659 184.871 24.7083L197.078 19.9678C198.256 19.5102 199.582 20.0944 200.04 21.2727Z" fill="#000033"/>
<path id="Rectangle 51_5" d="M180.271 28.9505C180.729 30.1288 180.145 31.4549 178.966 31.9126L163.875 37.7733C162.697 38.2309 161.371 37.6467 160.913 36.4684C160.456 35.29 161.04 33.9639 162.218 33.5063L177.309 27.6455C178.488 27.1879 179.814 27.7722 180.271 28.9505Z" fill="#000033"/>
<path id="Rectangle 53_5" d="M147.394 41.72C147.852 42.8983 147.268 44.2245 146.089 44.6821L116.272 56.262C115.094 56.7196 113.768 56.1354 113.31 54.9571C112.852 53.7788 113.437 52.4526 114.615 51.995L144.432 40.4151C145.611 39.9575 146.937 40.5417 147.394 41.72Z" fill="#000033"/>
<path id="Rectangle 52_5" d="M157.618 37.7493C158.076 38.9276 157.492 40.2538 156.314 40.7114L153.651 41.7455C152.472 42.2031 151.146 41.6188 150.689 40.4405C150.231 39.2622 150.815 37.9361 151.994 37.4785L154.656 36.4444C155.835 35.9868 157.161 36.571 157.618 37.7493Z" fill="#000033"/>
</g>
</g>
<defs>
<filter id="filter0_d_87_3977" x="21.896" y="21.8828" width="119.209" height="126.059" filterUnits="userSpaceOnUse" color-interpolation-filters="sRGB">
<feFlood flood-opacity="0" result="BackgroundImageFix"/>
<feColorMatrix in="SourceAlpha" type="matrix" values="0 0 0 0 0 0 0 0 0 0 0 0 0 0 0 0 0 0 127 0" result="hardAlpha"/>
<feOffset dx="4" dy="4"/>
<feComposite in2="hardAlpha" operator="out"/>
<feColorMatrix type="matrix" values="0 0 0 0 0.926097 0 0 0 0 0.926097 0 0 0 0 0.936816 0 0 0 1 0"/>
<feBlend mode="normal" in2="BackgroundImageFix" result="effect1_dropShadow_87_3977"/>
<feBlend mode="normal" in="SourceGraphic" in2="effect1_dropShadow_87_3977" result="shape"/>
</filter>
<filter id="filter1_d_87_3977" x="76.9934" y="17.0996" width="133.945" height="82.6445" filterUnits="userSpaceOnUse" color-interpolation-filters="sRGB">
<feFlood flood-opacity="0" result="BackgroundImageFix"/>
<feColorMatrix in="SourceAlpha" type="matrix" values="0 0 0 0 0 0 0 0 0 0 0 0 0 0 0 0 0 0 127 0" result="hardAlpha"/>
<feOffset dx="4" dy="4"/>
<feComposite in2="hardAlpha" operator="out"/>
<feColorMatrix type="matrix" values="0 0 0 0 0.926097 0 0 0 0 0.926097 0 0 0 0 0.936816 0 0 0 1 0"/>
<feBlend mode="normal" in2="BackgroundImageFix" result="effect1_dropShadow_87_3977"/>
<feBlend mode="normal" in="SourceGraphic" in2="effect1_dropShadow_87_3977" result="shape"/>
</filter>
</defs>
</svg>
