<svg width="65" height="65" viewBox="0 0 65 65" fill="none" xmlns="http://www.w3.org/2000/svg">
<g id="Group 1446">
<path id="Vector" d="M64.9955 21.0104C64.9955 16.1218 65.0063 11.2332 64.9955 6.34462C64.9831 3.1866 63.221 0.857525 60.3263 0.180145C59.6711 0.0489388 59.0031 -0.00812149 58.3352 0.0100288C48.71 -0.000278473 39.0854 -0.000278473 29.4613 0.0100288C26.0576 0.0100288 23.6425 1.85194 23.0191 4.93108C22.9653 5.20829 22.9383 5.49002 22.9386 5.7724C22.9293 8.06229 22.9293 10.3527 22.9386 12.6436C22.9386 13.5252 23.4027 14.0355 24.1361 14.0247C24.8431 14.0139 25.2887 13.5313 25.2964 12.6777C25.315 10.6192 25.2964 8.56079 25.3057 6.50237C25.3057 3.83924 26.7553 2.39632 29.4056 2.39632H58.428C61.1911 2.39632 62.6253 3.82068 62.6253 6.57196C62.6253 16.2471 62.6253 25.9216 62.6253 35.5957C62.6253 38.2588 61.1896 39.7079 58.5378 39.7172C56.6596 39.7249 54.7799 39.7002 52.9017 39.7265C51.8403 39.7419 51.1998 40.6003 51.6949 41.3906C51.8991 41.72 52.405 42.0447 52.7779 42.054C55.015 42.1112 57.2645 42.1282 59.4939 42.054C62.1782 41.972 64.6845 39.5919 64.9089 36.9133C65.0264 35.5338 64.9909 34.1389 64.994 32.7501C65.0017 28.8327 64.9955 24.9215 64.9955 21.0104Z" fill="#EDEDF2"/>
<path id="Vector_2" d="M18.7697 30.7617C18.188 31.2658 17.532 31.7066 17.0354 32.285C14.9034 34.7765 16.1272 38.5222 19.288 39.2042C19.969 39.3681 20.6808 39.3538 21.3547 39.1629C22.0286 38.9719 22.642 38.6106 23.1357 38.1139C24.6921 36.6153 26.2113 35.0765 27.7291 33.5377C28.3046 32.9547 28.3061 32.2541 27.7971 31.7623C27.2881 31.2705 26.6074 31.3076 26.0179 31.8876C24.6054 33.2794 23.2192 34.6945 21.8005 36.0771C21.5034 36.3946 21.1393 36.6419 20.7345 36.8009C20.0043 37.0329 19.3019 36.8921 18.7805 36.2565C18.5482 35.9464 18.4135 35.5742 18.3934 35.1872C18.3733 34.8003 18.4687 34.4162 18.6676 34.0836C18.8424 33.8296 19.0436 33.5948 19.2679 33.383C20.9181 31.7221 22.5725 30.0647 24.231 28.4109C24.3594 28.2841 24.4909 28.1604 24.6116 28.0274C25.1779 27.4088 25.2165 26.7515 24.7199 26.2474C24.2233 25.7432 23.5518 25.754 22.9423 26.3309C22.2894 26.9495 21.6659 27.6021 21.0254 28.2346C20.849 28.4094 20.6587 28.5702 20.4638 28.7481C19.6717 27.132 20.2874 25.3163 21.9397 24.3699C24.327 23.0043 26.8271 21.8135 29.1075 20.2901C33.7396 17.1971 41.9626 18.9384 45.179 24.7751C47.1655 28.3738 46.9551 31.9927 45.292 35.6534C43.6026 39.3893 41.2028 42.7614 38.2263 45.5821C37.3831 46.3832 36.5322 46.4327 35.5962 45.7476C34.8489 45.2032 34.2208 45.2156 33.7566 45.7816C33.2739 46.3724 33.4101 47.0389 34.1372 47.6482C35.6132 48.8855 37.9664 49.0046 39.4114 47.7039C43.6984 43.8376 46.9752 39.2398 48.5146 33.6475C50.546 26.2736 46.0779 18.9183 38.5465 16.945C34.8891 15.9877 31.3354 16.1624 27.9859 18.2069C25.707 19.5988 23.3445 20.8484 21.0115 22.1599C17.8244 23.9523 16.859 27.1428 18.5361 30.375C18.5664 30.4432 18.5917 30.5135 18.6119 30.5854L18.7697 30.7617Z" fill="#EDEDF2"/>
<path id="Vector_3" d="M30.3068 46.4219C30.8489 46.4461 31.3901 46.3574 31.8962 46.1615C32.4022 45.9656 32.862 45.6666 33.2463 45.2836C34.699 43.8639 36.1317 42.4256 37.5597 40.9812C38.1568 40.3765 38.1785 39.73 37.6788 39.2104C37.1791 38.6908 36.472 38.7155 35.847 39.3295C34.5273 40.627 33.2277 41.9431 31.9158 43.2484C30.8916 44.266 30.1814 44.3201 29.0041 43.4819C28.3698 43.0303 27.7138 43.0644 27.2775 43.5732C26.8134 44.116 26.8892 44.7702 27.508 45.3393C28.2628 46.053 29.2679 46.4418 30.3068 46.4219Z" fill="#EDEDF2"/>
<path id="Vector_4" d="M25.0631 43.0859C26.1711 43.0858 27.2346 42.6504 28.0243 41.8735C29.3579 40.5558 30.6838 39.231 32.0019 37.8989C32.6208 37.2803 32.6502 36.5812 32.1288 36.0724C31.6074 35.5636 30.9143 35.6255 30.2955 36.2364C29.0701 37.4442 27.8618 38.669 26.6412 39.8815C25.6201 40.893 24.8914 40.9517 23.7295 40.1321C23.0658 39.6681 22.467 39.6944 22.0122 40.2218C21.5573 40.7491 21.6208 41.4312 22.2272 41.9848C23.0209 42.7101 23.9708 43.0411 25.0631 43.0859Z" fill="#EDEDF2"/>
<path id="Vector_5" d="M42.0662 59.5288C42.0755 58.4013 41.6918 57.8925 40.9972 57.8384C40.3025 57.7843 39.7935 58.1987 39.713 59.0524C39.6385 60.1123 39.1581 61.1027 38.3717 61.8176C38.2566 61.9209 38.1636 62.0464 38.0982 62.1864C38.0327 62.3265 37.9963 62.4784 37.9909 62.6329C37.9856 62.7874 38.0115 62.9413 38.0671 63.0856C38.1227 63.2299 38.2068 63.3614 38.3144 63.4724C38.7647 63.9627 39.4825 63.989 40.0364 63.4987C41.305 62.3728 41.978 60.95 42.0662 59.5288Z" fill="#EDEDF2"/>
<path id="Vector_6" d="M0.0326625 28.5807C-0.0106568 29.4916 0.365293 30.0205 1.09708 30.0808C1.82887 30.1411 2.31157 29.6663 2.38583 28.7879C2.44709 27.8305 2.86363 26.9305 3.55391 26.264C4.20834 25.6253 4.2563 24.8845 3.72409 24.3803C3.19188 23.8761 2.55601 23.9303 1.89075 24.5643C1.3323 25.079 0.88076 25.6986 0.561941 26.3877C0.243122 27.0768 0.0632706 27.822 0.0326625 28.5807Z" fill="#EDEDF2"/>
<path id="Vector_7" d="M2.06928 63.2402C3.24509 63.2294 3.84692 62.252 3.31781 61.488C2.63708 60.5167 2.30056 59.3458 2.36169 58.1614C2.37441 57.8528 2.26395 57.5517 2.05461 57.3245C1.84528 57.0972 1.55421 56.9624 1.24544 56.9497C0.936674 56.937 0.6355 57.0474 0.408175 57.2567C0.180849 57.4659 0.0459928 57.7569 0.0332729 58.0655C-0.109062 59.7281 0.187985 61.2947 1.26014 62.6216C1.51232 62.9309 1.90993 63.1273 2.06928 63.2402Z" fill="#EDEDF2"/>
<path id="Vector_8" d="M2.38011 43.5252C2.38011 42.8556 2.39249 42.1859 2.38011 41.5147C2.36155 40.7678 1.86956 40.2481 1.20894 40.245C1.05376 40.2446 0.900045 40.275 0.756695 40.3344C0.613346 40.3938 0.483215 40.4811 0.373847 40.5911C0.264479 40.7012 0.178047 40.8318 0.119561 40.9755C0.0610748 41.1192 0.0316968 41.273 0.0331304 41.4281C-0.00245331 42.8417 -0.00400043 44.2583 0.0331304 45.6718C0.0342837 45.8271 0.0665225 45.9805 0.127946 46.1231C0.18937 46.2657 0.278736 46.3946 0.390773 46.5021C0.50281 46.6096 0.635251 46.6936 0.780286 46.7492C0.925321 46.8047 1.08001 46.8307 1.23524 46.8255C1.86956 46.8054 2.33989 46.309 2.37547 45.6053C2.39249 45.245 2.37547 44.8846 2.37547 44.5227C2.3796 44.1918 2.38114 43.8593 2.38011 43.5252Z" fill="#EDEDF2"/>
<path id="Vector_9" d="M33.1395 62.6207C32.4711 62.6207 31.8012 62.6037 31.1282 62.6207C30.4042 62.6439 29.9261 63.0846 29.8905 63.7326C29.8549 64.3806 30.3345 64.9497 31.0849 64.9698C32.4722 65.0101 33.861 65.0101 35.2513 64.9698C36.0032 64.9497 36.489 64.3883 36.4611 63.7326C36.4333 63.0769 35.9166 62.6253 35.143 62.6083C34.4746 62.5928 33.8063 62.6083 33.1317 62.6083L33.1395 62.6207Z" fill="#EDEDF2"/>
<path id="Vector_10" d="M2.377 51.8752C2.377 51.2056 2.39092 50.5375 2.377 49.8647C2.35534 49.1162 1.86026 48.6012 1.19654 48.6043C1.0411 48.6047 0.887295 48.636 0.744112 48.6965C0.600928 48.757 0.471242 48.8454 0.362632 48.9565C0.254021 49.0677 0.168667 49.1994 0.111556 49.3439C0.0544461 49.4884 0.0267269 49.6429 0.0300171 49.7982C-0.00401952 51.2117 -0.00556664 52.6268 0.0300171 54.0404C0.0299239 54.1957 0.0616756 54.3494 0.123314 54.4919C0.184952 54.6345 0.275168 54.763 0.388394 54.8693C0.50162 54.9757 0.635454 55.0578 0.781634 55.1104C0.927814 55.1631 1.08324 55.1852 1.23832 55.1755C1.88192 55.1492 2.3476 54.6667 2.37081 53.9537C2.39402 53.2408 2.377 52.5681 2.377 51.8752Z" fill="#EDEDF2"/>
<path id="Vector_11" d="M2.37417 35.1676C2.37417 34.4732 2.39428 33.7758 2.37417 33.0845C2.35406 32.3932 1.85743 31.906 1.21074 31.8998C1.06207 31.894 0.91374 31.9178 0.774353 31.9698C0.634966 32.0218 0.507303 32.101 0.398774 32.2027C0.290245 32.3044 0.203014 32.4267 0.142147 32.5624C0.0812803 32.6981 0.0479893 32.8445 0.0442083 32.9932C0.000888913 34.4315 0.000888913 35.8713 0.0442083 37.3127C0.044099 37.4681 0.0753653 37.622 0.136135 37.765C0.196904 37.9081 0.285927 38.0374 0.397874 38.1453C0.509822 38.2531 0.64239 38.3373 0.787644 38.3927C0.932899 38.4482 1.08785 38.4738 1.24323 38.4679C1.88064 38.4463 2.36179 37.9529 2.385 37.2493C2.40821 36.5456 2.37572 35.8682 2.37417 35.1676Z" fill="#EDEDF2"/>
<path id="Vector_12" d="M42.073 52.6793C42.073 52.0127 42.0885 51.3446 42.073 50.6765C42.0513 49.9527 41.6088 49.4919 40.9467 49.4733C40.2845 49.4548 39.7554 49.8723 39.7368 50.5899C39.6997 52.0272 39.6997 53.4649 39.7368 54.9032C39.7569 55.6161 40.2861 56.0244 40.9668 55.9858C41.598 55.9517 42.0389 55.5141 42.0637 54.8321C42.0885 54.1145 42.0637 53.3938 42.0637 52.6669L42.073 52.6793Z" fill="#EDEDF2"/>
<path id="Vector_13" d="M8.85445 22.9289C8.18609 22.9289 7.51619 22.9134 6.84319 22.9289C6.12687 22.9505 5.655 23.4099 5.6318 24.0594C5.62066 24.2142 5.64178 24.3697 5.6938 24.516C5.74583 24.6623 5.82764 24.7962 5.93407 24.9093C6.0405 25.0223 6.16923 25.1121 6.31212 25.1729C6.45502 25.2337 6.60898 25.2643 6.76429 25.2626C8.17681 25.3013 9.59242 25.2997 11.0049 25.2626C11.1603 25.2668 11.3148 25.2396 11.4594 25.1826C11.6039 25.1256 11.7355 25.04 11.8462 24.931C11.9568 24.8219 12.0443 24.6917 12.1034 24.548C12.1625 24.4044 12.192 24.2503 12.19 24.095C12.19 23.4269 11.6841 22.9413 10.9307 22.9227C10.2422 22.915 9.5491 22.9289 8.85445 22.9289Z" fill="#EDEDF2"/>
<path id="Vector_14" d="M8.09209 62.6218C7.39898 62.6218 6.69969 62.6063 6.01277 62.6218C5.32584 62.6373 4.91121 63.0053 4.84005 63.7044C4.76888 64.4034 5.17577 64.9323 5.89364 64.9586C7.35412 65.0112 8.81924 65.0112 10.2782 64.9586C10.9945 64.9339 11.4029 64.3895 11.3395 63.7075C11.2761 63.0254 10.8568 62.6481 10.1714 62.6249C9.48605 62.6017 8.7852 62.6218 8.09209 62.6218Z" fill="#EDEDF2"/>
<path id="Vector_15" d="M24.8081 62.6192C24.1135 62.6192 23.4157 62.6022 22.7257 62.6192C22.0357 62.6362 21.6226 63.012 21.5483 63.7017C21.5261 63.856 21.537 64.0132 21.5804 64.1629C21.6238 64.3126 21.6987 64.4513 21.8001 64.5698C21.9014 64.6882 22.0269 64.7836 22.1681 64.8497C22.3093 64.9158 22.463 64.951 22.6189 64.9529C24.081 65.0024 25.5476 64.9977 27.0112 64.9529C27.1604 64.9486 27.3071 64.9144 27.4429 64.8525C27.5786 64.7905 27.7006 64.702 27.8015 64.5921C27.9025 64.4823 27.9804 64.3533 28.0306 64.2129C28.0809 64.0724 28.1025 63.9234 28.0942 63.7744C28.0787 63.1357 27.5914 62.647 26.8905 62.6207C26.1897 62.5944 25.4981 62.6207 24.8081 62.6207V62.6192Z" fill="#EDEDF2"/>
<path id="Vector_16" d="M16.3943 62.6144C15.7274 62.6144 15.0575 62.5958 14.3907 62.6144C13.662 62.6391 13.2103 63.0784 13.1902 63.7495C13.1701 64.4207 13.5739 64.9326 14.3072 64.9574C15.7182 65.0038 17.1307 65.0038 18.5448 64.9574C19.3183 64.9357 19.7453 64.4177 19.7082 63.7202C19.6726 63.0675 19.21 62.6376 18.4705 62.6144C18.1116 62.5989 17.7511 62.6144 17.3875 62.6067H16.385L16.3943 62.6144Z" fill="#EDEDF2"/>
</g>
</svg>
