<svg width="1441" height="875" viewBox="0 0 1441 875" fill="none" xmlns="http://www.w3.org/2000/svg">
<mask id="path-1-inside-1_72_2486" fill="white">
<rect width="276.958" height="71.7385" rx="10" transform="matrix(0.983771 -0.179426 -0.179426 -0.983771 -26.8811 293.65)"/>
</mask>
<rect width="276.958" height="71.7385" rx="10" transform="matrix(0.983771 -0.179426 -0.179426 -0.983771 -26.8811 293.65)" stroke="#000033" stroke-width="66" mask="url(#path-1-inside-1_72_2486)"/>
<mask id="path-2-inside-2_72_2486" fill="white">
<rect width="325.453" height="71.7385" rx="10" transform="matrix(0.983771 -0.179426 -0.179426 -0.983771 300.082 234.016)"/>
</mask>
<rect width="325.453" height="71.7385" rx="10" transform="matrix(0.983771 -0.179426 -0.179426 -0.983771 300.082 234.016)" stroke="#000033" stroke-width="66" mask="url(#path-2-inside-2_72_2486)"/>
<mask id="path-3-inside-3_72_2486" fill="white">
<rect width="573.039" height="71.7385" rx="10" transform="matrix(0.983771 -0.179426 -0.179426 -0.983771 843.844 134.84)"/>
</mask>
<rect width="573.039" height="71.7385" rx="10" transform="matrix(0.983771 -0.179426 -0.179426 -0.983771 843.844 134.84)" stroke="#000033" stroke-width="66" mask="url(#path-3-inside-3_72_2486)"/>
<mask id="path-4-inside-4_72_2486" fill="white">
<rect width="116.505" height="71.7385" rx="10" transform="matrix(0.983771 -0.179426 -0.179426 -0.983771 674.743 165.684)"/>
</mask>
<rect width="116.505" height="71.7385" rx="10" transform="matrix(0.983771 -0.179426 -0.179426 -0.983771 674.743 165.684)" stroke="#000033" stroke-width="66" mask="url(#path-4-inside-4_72_2486)"/>
<mask id="path-5-inside-5_72_2486" fill="white">
<rect width="55.3915" height="71.7385" rx="10" transform="matrix(-0.983771 0.179426 0.179426 0.983771 1338.41 98.5215)"/>
</mask>
<rect width="55.3915" height="71.7385" rx="10" transform="matrix(-0.983771 0.179426 0.179426 0.983771 1338.41 98.5215)" stroke="#000033" stroke-width="55.3915" mask="url(#path-5-inside-5_72_2486)"/>
<mask id="path-6-inside-6_72_2486" fill="white">
<rect width="276.958" height="71.7385" rx="10" transform="matrix(-0.983771 0.179426 0.179426 0.983771 1229.43 118.391)"/>
</mask>
<rect width="276.958" height="71.7385" rx="10" transform="matrix(-0.983771 0.179426 0.179426 0.983771 1229.43 118.391)" stroke="#000033" stroke-width="66" mask="url(#path-6-inside-6_72_2486)"/>
<mask id="path-7-inside-7_72_2486" fill="white">
<rect width="325.453" height="71.7385" rx="10" transform="matrix(-0.983771 0.179426 0.179426 0.983771 902.469 178.025)"/>
</mask>
<rect width="325.453" height="71.7385" rx="10" transform="matrix(-0.983771 0.179426 0.179426 0.983771 902.469 178.025)" stroke="#000033" stroke-width="66" mask="url(#path-7-inside-7_72_2486)"/>
<mask id="path-8-inside-8_72_2486" fill="white">
<rect width="573.039" height="71.7385" rx="10" transform="matrix(-0.983771 0.179426 0.179426 0.983771 358.705 277.201)"/>
</mask>
<rect width="573.039" height="71.7385" rx="10" transform="matrix(-0.983771 0.179426 0.179426 0.983771 358.705 277.201)" stroke="#000033" stroke-width="66" mask="url(#path-8-inside-8_72_2486)"/>
<mask id="path-9-inside-9_72_2486" fill="white">
<rect width="116.505" height="71.7385" rx="10" transform="matrix(-0.983771 0.179426 0.179426 0.983771 527.809 246.357)"/>
</mask>
<rect width="116.505" height="71.7385" rx="10" transform="matrix(-0.983771 0.179426 0.179426 0.983771 527.809 246.357)" stroke="#000033" stroke-width="66" mask="url(#path-9-inside-9_72_2486)"/>
<mask id="path-10-inside-10_72_2486" fill="white">
<rect width="276.958" height="71.7385" rx="10" transform="matrix(0.983771 -0.179426 -0.179426 -0.983771 17.8804 539.088)"/>
</mask>
<rect width="276.958" height="71.7385" rx="10" transform="matrix(0.983771 -0.179426 -0.179426 -0.983771 17.8804 539.088)" stroke="#000033" stroke-width="66" mask="url(#path-10-inside-10_72_2486)"/>
<mask id="path-11-inside-11_72_2486" fill="white">
<rect width="325.453" height="71.7385" rx="10" transform="matrix(0.983771 -0.179426 -0.179426 -0.983771 344.844 479.455)"/>
</mask>
<rect width="325.453" height="71.7385" rx="10" transform="matrix(0.983771 -0.179426 -0.179426 -0.983771 344.844 479.455)" stroke="#000033" stroke-width="66" mask="url(#path-11-inside-11_72_2486)"/>
<mask id="path-12-inside-12_72_2486" fill="white">
<rect width="573.039" height="71.7385" rx="10" transform="matrix(0.983771 -0.179426 -0.179426 -0.983771 888.608 380.281)"/>
</mask>
<rect width="573.039" height="71.7385" rx="10" transform="matrix(0.983771 -0.179426 -0.179426 -0.983771 888.608 380.281)" stroke="#000033" stroke-width="66" mask="url(#path-12-inside-12_72_2486)"/>
<mask id="path-13-inside-13_72_2486" fill="white">
<rect width="116.505" height="71.7385" rx="10" transform="matrix(0.983771 -0.179426 -0.179426 -0.983771 719.505 411.121)"/>
</mask>
<rect width="116.505" height="71.7385" rx="10" transform="matrix(0.983771 -0.179426 -0.179426 -0.983771 719.505 411.121)" stroke="#000033" stroke-width="66" mask="url(#path-13-inside-13_72_2486)"/>
<mask id="path-14-inside-14_72_2486" fill="white">
<rect width="276.958" height="71.7385" rx="10" transform="matrix(0.983771 -0.179426 -0.179426 -0.983771 -71.6685 48.2168)"/>
</mask>
<rect width="276.958" height="71.7385" rx="10" transform="matrix(0.983771 -0.179426 -0.179426 -0.983771 -71.6685 48.2168)" stroke="#000033" stroke-width="66" mask="url(#path-14-inside-14_72_2486)"/>
<mask id="path-15-inside-15_72_2486" fill="white">
<rect x="1396.05" y="414.531" width="55.3915" height="71.7385" rx="10" transform="rotate(169.664 1396.05 414.531)"/>
</mask>
<rect x="1396.05" y="414.531" width="55.3915" height="71.7385" rx="10" transform="rotate(169.664 1396.05 414.531)" stroke="#000033" stroke-width="55.3915" mask="url(#path-15-inside-15_72_2486)"/>
<mask id="path-16-inside-16_72_2486" fill="white">
<rect x="1287.07" y="434.404" width="276.958" height="71.7385" rx="10" transform="rotate(169.664 1287.07 434.404)"/>
</mask>
<rect x="1287.07" y="434.404" width="276.958" height="71.7385" rx="10" transform="rotate(169.664 1287.07 434.404)" stroke="#000033" stroke-width="66" mask="url(#path-16-inside-16_72_2486)"/>
<mask id="path-17-inside-17_72_2486" fill="white">
<rect x="960.108" y="494.039" width="325.453" height="71.7385" rx="10" transform="rotate(169.664 960.108 494.039)"/>
</mask>
<rect x="960.108" y="494.039" width="325.453" height="71.7385" rx="10" transform="rotate(169.664 960.108 494.039)" stroke="#000033" stroke-width="66" mask="url(#path-17-inside-17_72_2486)"/>
<mask id="path-18-inside-18_72_2486" fill="white">
<rect x="416.344" y="593.213" width="573.039" height="71.7385" rx="10" transform="rotate(169.664 416.344 593.213)"/>
</mask>
<rect x="416.344" y="593.213" width="573.039" height="71.7385" rx="10" transform="rotate(169.664 416.344 593.213)" stroke="#000033" stroke-width="66" mask="url(#path-18-inside-18_72_2486)"/>
<mask id="path-19-inside-19_72_2486" fill="white">
<rect x="585.445" y="562.369" width="116.505" height="71.7385" rx="10" transform="rotate(169.664 585.445 562.369)"/>
</mask>
<rect x="585.445" y="562.369" width="116.505" height="71.7385" rx="10" transform="rotate(169.664 585.445 562.369)" stroke="#000033" stroke-width="66" mask="url(#path-19-inside-19_72_2486)"/>
<mask id="path-20-inside-20_72_2486" fill="white">
<rect x="870.581" y="3.16602" width="325.453" height="71.7385" rx="10" transform="rotate(169.664 870.581 3.16602)"/>
</mask>
<rect x="870.581" y="3.16602" width="325.453" height="71.7385" rx="10" transform="rotate(169.664 870.581 3.16602)" stroke="#000033" stroke-width="66" mask="url(#path-20-inside-20_72_2486)"/>
<mask id="path-21-inside-21_72_2486" fill="white">
<rect x="326.815" y="102.342" width="573.039" height="71.7385" rx="10" transform="rotate(169.664 326.815 102.342)"/>
</mask>
<rect x="326.815" y="102.342" width="573.039" height="71.7385" rx="10" transform="rotate(169.664 326.815 102.342)" stroke="#000033" stroke-width="66" mask="url(#path-21-inside-21_72_2486)"/>
<mask id="path-22-inside-22_72_2486" fill="white">
<rect x="495.919" y="71.498" width="116.505" height="71.7385" rx="10" transform="rotate(169.664 495.919 71.498)"/>
</mask>
<rect x="495.919" y="71.498" width="116.505" height="71.7385" rx="10" transform="rotate(169.664 495.919 71.498)" stroke="#000033" stroke-width="66" mask="url(#path-22-inside-22_72_2486)"/>
<mask id="path-23-inside-23_72_2486" fill="white">
<rect width="55.3915" height="71.7385" rx="10" transform="matrix(0.983771 -0.179426 -0.179426 -0.983771 -46.3411 804.404)"/>
</mask>
<rect width="55.3915" height="71.7385" rx="10" transform="matrix(0.983771 -0.179426 -0.179426 -0.983771 -46.3411 804.404)" stroke="#000033" stroke-width="55.3915" mask="url(#path-23-inside-23_72_2486)"/>
<mask id="path-24-inside-24_72_2486" fill="white">
<rect width="276.958" height="71.7385" rx="10" transform="matrix(0.983771 -0.179426 -0.179426 -0.983771 62.6338 784.527)"/>
</mask>
<rect width="276.958" height="71.7385" rx="10" transform="matrix(0.983771 -0.179426 -0.179426 -0.983771 62.6338 784.527)" stroke="#000033" stroke-width="66" mask="url(#path-24-inside-24_72_2486)"/>
<mask id="path-25-inside-25_72_2486" fill="white">
<rect width="325.453" height="71.7385" rx="10" transform="matrix(0.983771 -0.179426 -0.179426 -0.983771 389.597 724.891)"/>
</mask>
<rect width="325.453" height="71.7385" rx="10" transform="matrix(0.983771 -0.179426 -0.179426 -0.983771 389.597 724.891)" stroke="#000033" stroke-width="66" mask="url(#path-25-inside-25_72_2486)"/>
<mask id="path-26-inside-26_72_2486" fill="white">
<rect width="573.039" height="71.7385" rx="10" transform="matrix(0.983771 -0.179426 -0.179426 -0.983771 933.36 625.717)"/>
</mask>
<rect width="573.039" height="71.7385" rx="10" transform="matrix(0.983771 -0.179426 -0.179426 -0.983771 933.36 625.717)" stroke="#000033" stroke-width="66" mask="url(#path-26-inside-26_72_2486)"/>
<mask id="path-27-inside-27_72_2486" fill="white">
<rect width="116.505" height="71.7385" rx="10" transform="matrix(0.983771 -0.179426 -0.179426 -0.983771 764.26 656.562)"/>
</mask>
<rect width="116.505" height="71.7385" rx="10" transform="matrix(0.983771 -0.179426 -0.179426 -0.983771 764.26 656.562)" stroke="#000033" stroke-width="66" mask="url(#path-27-inside-27_72_2486)"/>
</svg>
