<svg width="20" height="18" viewBox="0 0 20 18" fill="none" xmlns="http://www.w3.org/2000/svg">
<g id="Group 510">
<g id="Group 509">
<path id="Path" d="M14.001 11.2539H13.1692L12.8744 10.9839C13.9062 9.84391 14.5274 8.36391 14.5274 6.75391C14.5274 3.16391 11.4635 0.253906 7.68363 0.253906C3.90375 0.253906 0.839844 3.16391 0.839844 6.75391C0.839844 10.3439 3.90375 13.2539 7.68363 13.2539C9.37878 13.2539 10.9371 12.6639 12.1374 11.6839L12.4216 11.9639V12.7539L17.6861 17.7439L19.2549 16.2539L14.001 11.2539Z" fill="#000033"/>
<path id="Path_2" d="M7.68332 11.2539C5.06162 11.2539 2.94531 9.24391 2.94531 6.75391C2.94531 4.26391 5.06162 2.25391 7.68332 2.25391C10.305 2.25391 12.4213 4.26391 12.4213 6.75391C12.4213 9.24391 10.305 11.2539 7.68332 11.2539Z" fill="white"/>
</g>
</g>
</svg>
