<svg width="24" height="22" viewBox="0 0 24 22" fill="none" xmlns="http://www.w3.org/2000/svg">
<path fill-rule="evenodd" clip-rule="evenodd" d="M9.23008 21.2344H18.6801C19.5516 21.2344 20.2971 20.7094 20.6121 19.9534L23.7831 12.5509C23.8776 12.3094 23.9301 12.0574 23.9301 11.7844V9.68437C23.9301 8.52938 22.9851 7.58437 21.8301 7.58437H15.2046L16.2021 2.78587L16.2336 2.44987C16.2336 2.01937 16.0551 1.62037 15.7716 1.33687L14.6586 0.234375L7.73908 7.15387C7.36108 7.53188 7.13008 8.05687 7.13008 8.63437V19.1344C7.13008 20.2894 8.07508 21.2344 9.23008 21.2344ZM9.23008 8.63437L13.7871 4.07737L12.3801 9.68437H21.8301V11.7844L18.6801 19.1344H9.23008V8.63437ZM5.03008 8.63437H0.830078V21.2344H5.03008V8.63437Z" fill="#CCB8A0"/>
</svg>
