<svg width="27" height="19" viewBox="0 0 27 19" fill="none" xmlns="http://www.w3.org/2000/svg">
<path id="icon/action/visibility_24px" fill-rule="evenodd" clip-rule="evenodd" d="M0.201172 9.73291C2.27098 4.48063 7.37969 0.759766 13.3618 0.759766C19.3439 0.759766 24.4526 4.48063 26.5224 9.73291C24.4526 14.9852 19.3439 18.7061 13.3618 18.7061C7.37969 18.7061 2.27098 14.9852 0.201172 9.73291ZM23.9142 9.73291C21.9401 5.70098 17.8962 3.1526 13.3618 3.1526C8.82735 3.1526 4.78346 5.70098 2.80937 9.73291C4.78346 13.7648 8.82735 16.3132 13.3618 16.3132C17.8962 16.3132 21.9401 13.7648 23.9142 9.73291ZM13.3618 6.74186C15.0128 6.74186 16.3528 8.08185 16.3528 9.73291C16.3528 11.384 15.0128 12.724 13.3618 12.724C11.7107 12.724 10.3707 11.384 10.3707 9.73291C10.3707 8.08185 11.7107 6.74186 13.3618 6.74186ZM7.9779 9.73291C7.9779 6.76579 10.3947 4.34902 13.3618 4.34902C16.3289 4.34902 18.7457 6.76579 18.7457 9.73291C18.7457 12.7 16.3289 15.1168 13.3618 15.1168C10.3947 15.1168 7.9779 12.7 7.9779 9.73291Z" fill="#CCB8A0"/>
</svg>
